# Blender v3.0.1 OBJ File: 'Flat_Melee.blend'
# www.blender.org
mtllib Cleaver.mtl
o Cleaver_Plane
v 0.003887 0.008705 -0.021935
v 0.003887 0.201011 0.016835
v 0.003887 0.008705 0.016835
v 0.003887 0.005359 -0.021935
v 0.003887 0.212864 0.075344
v 0.003887 0.004036 0.075343
v 0.003887 0.181226 -0.021935
v 0.003887 0.194820 -0.011030
v 0.003887 0.184614 -0.002887
v 0.003887 0.177568 -0.011710
v 0.003887 0.181662 -0.010014
v 0.003887 0.181662 0.004241
v 0.003887 0.164454 -0.002887
v 0.003887 0.167406 -0.010014
v 0.003887 0.174534 0.007193
v 0.003887 0.167406 0.004241
v 0.003887 0.174534 -0.012967
v 0.000000 0.214547 0.083652
v -0.003887 0.008705 -0.021935
v -0.003887 0.201011 0.016835
v -0.003887 0.008705 0.016835
v 0.000000 0.003373 0.083652
v -0.003887 0.212864 0.075344
v -0.003887 0.004036 0.075343
v -0.003887 0.181226 -0.021935
v -0.003887 0.194820 -0.011030
v -0.003887 0.184614 -0.002887
v -0.003887 0.177568 -0.011710
v -0.003887 0.181662 -0.010014
v -0.003887 0.181662 0.004241
v -0.003887 0.164454 -0.002887
v -0.003887 0.167406 -0.010014
v -0.003887 0.174534 0.007193
v -0.003887 0.167406 0.004241
v -0.003887 0.174534 -0.012967
v -0.011819 -0.026095 -0.010421
v -0.011819 -0.021325 -0.007668
v -0.011819 -0.021325 -0.002160
v -0.011819 -0.026095 0.000593
v -0.011819 -0.030864 -0.002160
v -0.011819 -0.030864 -0.007668
v 0.011819 -0.026095 -0.010421
v 0.011819 -0.021325 -0.007668
v 0.011819 -0.021325 -0.002160
v 0.011819 -0.026095 0.000593
v 0.011819 -0.030864 -0.002160
v 0.011819 -0.030864 -0.007668
v -0.011819 -0.101940 -0.010421
v -0.011819 -0.097170 -0.007668
v -0.011819 -0.097170 -0.002160
v -0.011819 -0.101940 0.000593
v -0.011819 -0.106709 -0.002160
v -0.011819 -0.106709 -0.007668
v 0.011819 -0.101940 -0.010421
v 0.011819 -0.097170 -0.007668
v 0.011819 -0.097170 -0.002160
v 0.011819 -0.101940 0.000593
v 0.011819 -0.106709 -0.002160
v 0.011819 -0.106709 -0.007668
v 0.003887 0.005359 0.012171
v -0.003887 0.005359 0.012171
v -0.003887 0.005359 -0.021935
v -0.010345 0.005022 -0.020414
v -0.010345 0.005022 0.014977
v -0.005209 -0.007856 -0.022837
v -0.005209 -0.039799 -0.022837
v -0.005209 -0.114621 0.012975
v -0.005209 -0.062500 0.017872
v -0.005209 -0.007856 0.012975
v -0.005209 -0.129532 0.017872
v -0.005209 -0.129532 -0.022837
v -0.005209 0.006960 0.017872
v -0.005209 0.006960 -0.022837
v -0.005209 -0.062500 -0.022837
v -0.005209 -0.086830 -0.022837
v -0.005209 -0.114621 -0.022837
v -0.005209 -0.086830 0.012975
v -0.005209 -0.039799 0.012975
v -0.010345 -0.127594 -0.020414
v -0.010345 -0.127594 0.015050
v -0.010345 -0.114805 0.010553
v -0.010345 -0.007856 -0.020414
v -0.010345 -0.007640 0.010553
v -0.010345 -0.039983 0.010553
v -0.010345 -0.062500 0.015421
v -0.010345 -0.086646 0.010553
v -0.010345 -0.114621 -0.020414
v -0.010345 -0.086830 -0.020414
v -0.010345 -0.062500 -0.020414
v -0.010345 -0.039799 -0.020414
v 0.010345 0.005022 -0.020414
v 0.010345 0.005022 0.014977
v 0.005209 -0.007856 -0.022837
v 0.005209 -0.039799 -0.022837
v 0.005209 -0.114621 0.012975
v 0.005209 -0.062500 0.017872
v 0.005209 -0.007856 0.012975
v 0.005209 -0.129532 0.017872
v 0.005209 -0.129532 -0.022837
v 0.005209 0.006960 0.017872
v 0.005209 0.006960 -0.022837
v 0.005209 -0.062500 -0.022837
v 0.005209 -0.086830 -0.022837
v 0.005209 -0.114621 -0.022837
v 0.005209 -0.086830 0.012975
v 0.005209 -0.039799 0.012975
v 0.010345 -0.127594 -0.020414
v 0.010345 -0.127594 0.015050
v 0.010345 -0.114805 0.010553
v 0.010345 -0.007856 -0.020414
v 0.010345 -0.007640 0.010553
v 0.010345 -0.039983 0.010553
v 0.010345 -0.062500 0.015421
v 0.010345 -0.086646 0.010553
v 0.010345 -0.114621 -0.020414
v 0.010345 -0.086830 -0.020414
v 0.010345 -0.062500 -0.020414
v 0.010345 -0.039799 -0.020414
vt 0.046131 0.938245
vt 0.046131 0.938245
vt 0.046131 0.938245
vt 0.046131 0.938245
vt 0.046131 0.938245
vt 0.046131 0.938245
vt 0.046131 0.938245
vt 0.046131 0.938245
vt 0.046131 0.938245
vt 0.046131 0.938245
vt 0.046131 0.938245
vt 0.046131 0.938245
vt 0.046131 0.938245
vt 0.046131 0.938245
vt 0.046131 0.938245
vt 0.046131 0.938245
vt 0.046131 0.938245
vt 0.046131 0.938245
vt 0.046131 0.938245
vt 0.046131 0.938245
vt 0.046131 0.938245
vt 0.046131 0.938245
vt 0.046131 0.938245
vt 0.046131 0.938245
vt 0.552296 0.938885
vt 0.552296 0.938885
vt 0.552296 0.938885
vt 0.552296 0.938885
vt 0.552296 0.938885
vt 0.552296 0.938885
vt 0.552296 0.938885
vt 0.552296 0.938885
vt 0.552296 0.938885
vt 0.552296 0.938885
vt 0.552296 0.938885
vt 0.552296 0.938885
vt 0.552296 0.938885
vt 0.552296 0.938885
vt 0.552296 0.938885
vt 0.552296 0.938885
vt 0.552296 0.938885
vt 0.552296 0.938885
vt 0.552296 0.938885
vt 0.552296 0.938885
vt 0.552296 0.938885
vt 0.552296 0.938885
vt 0.552296 0.938885
vt 0.552296 0.938885
vt 0.552296 0.938885
vt 0.552296 0.938885
vt 0.552296 0.938885
vt 0.552296 0.938885
vt 0.552296 0.938885
vt 0.552296 0.938885
vt 0.552296 0.938885
vt 0.552296 0.938885
vt 0.552296 0.938885
vt 0.552296 0.938885
vt 0.552296 0.938885
vt 0.552296 0.938885
vt 0.552296 0.938885
vt 0.552296 0.938885
vt 0.950098 0.923925
vt 0.950098 0.923925
vt 0.950098 0.923925
vt 0.950098 0.923925
vt 0.950098 0.923925
vt 0.950098 0.923925
vt 0.051248 0.569528
vt 0.051248 0.569528
vt 0.051248 0.569528
vt 0.051248 0.569528
vt 0.051248 0.569528
vt 0.051248 0.569528
vt 0.051248 0.569528
vt 0.051248 0.569528
vt 0.051248 0.569528
vt 0.051248 0.569528
vt 0.051248 0.569528
vt 0.051248 0.569528
vt 0.051248 0.569528
vt 0.051248 0.569528
vt 0.051248 0.569528
vt 0.051248 0.569528
vt 0.051248 0.569528
vt 0.051248 0.569528
vt 0.051248 0.569528
vt 0.051248 0.569528
vt 0.051248 0.569528
vt 0.051248 0.569528
vt 0.051248 0.569528
vt 0.051248 0.569528
vt 0.051248 0.569528
vt 0.051248 0.569528
vt 0.051248 0.569528
vt 0.051248 0.569528
vt 0.051248 0.569528
vt 0.051248 0.569528
vt 0.051248 0.569528
vt 0.051248 0.569528
vt 0.051248 0.569528
vt 0.051248 0.569528
vt 0.051248 0.569528
vt 0.051248 0.569528
vt 0.051248 0.569528
vt 0.051248 0.569528
vt 0.051248 0.569528
vt 0.051248 0.569528
vt 0.051248 0.569528
vt 0.051248 0.569528
vt 0.051248 0.569528
vt 0.051248 0.569528
vt 0.051248 0.569528
vt 0.051248 0.569528
vt 0.051248 0.569528
vt 0.051248 0.569528
vt 0.051248 0.569528
vt 0.051248 0.569528
vt 0.051248 0.569528
vt 0.051248 0.569528
vt 0.051248 0.569528
vt 0.051248 0.569528
vt 0.051248 0.569528
vt 0.051248 0.569528
vn 0.0000 -0.5000 0.8660
vn 0.0000 1.0000 0.0000
vn 0.0000 -1.0000 0.0000
vn 0.0000 0.5000 0.8660
vn -0.0000 0.5000 -0.8660
vn -0.0000 -0.5000 -0.8660
vn 1.0000 -0.0000 0.0000
vn -1.0000 0.0000 0.0000
vn 0.0000 0.0000 -1.0000
vn 0.0000 -0.8125 0.5830
vn 0.0000 0.9801 -0.1986
vn 0.0000 -0.9968 -0.0796
vn 0.0000 -0.3827 0.9239
vn 0.0000 -0.9239 0.3827
vn 0.0000 -0.3827 -0.9239
vn 0.0000 0.3827 0.9239
vn 0.0000 0.3827 -0.9239
vn 0.0000 0.9239 0.3827
vn 0.0000 0.9239 -0.3827
vn 0.0000 -0.9239 -0.3827
vn 0.0000 0.6257 -0.7800
vn 0.0000 0.9762 -0.2169
vn 0.9058 -0.0000 0.4238
vn -0.9058 -0.0000 0.4238
vn -0.4266 0.0000 -0.9044
vn -0.4266 0.0000 0.9044
vn -0.4244 -0.1788 0.8877
vn -0.4235 0.1912 0.8855
vn -0.3999 -0.2945 0.8680
vn -0.3940 0.2952 0.8704
vn -0.3531 -0.9356 -0.0000
vn -0.3531 0.9356 0.0000
vn 0.0000 -0.3138 0.9495
vn 0.0000 -0.0000 1.0000
vn 0.0000 0.3120 0.9501
vn 0.0000 0.2109 0.9775
vn 0.0000 -0.1973 0.9803
vn 0.4266 0.0000 -0.9044
vn 0.4266 0.0000 0.9044
vn 0.4244 -0.1788 0.8877
vn 0.4235 0.1912 0.8855
vn 0.3999 -0.2945 0.8680
vn 0.3940 0.2952 0.8704
vn 0.3531 -0.9356 -0.0000
vn 0.3531 0.9356 0.0000
usemtl M_PCL_Flat_Black
s off
f 40/1/1 46/2/1 45/3/1 39/4/1
f 38/5/2 44/6/2 43/7/2 37/8/2
f 41/9/3 47/10/3 46/2/3 40/1/3
f 39/4/4 45/3/4 44/6/4 38/5/4
f 37/8/5 43/7/5 42/11/5 36/12/5
f 36/12/6 42/11/6 47/10/6 41/9/6
f 43/7/7 44/6/7 45/3/7 46/2/7 47/10/7 42/11/7
f 37/8/8 36/12/8 41/9/8 40/1/8 39/4/8 38/5/8
f 52/13/1 58/14/1 57/15/1 51/16/1
f 50/17/2 56/18/2 55/19/2 49/20/2
f 53/21/3 59/22/3 58/14/3 52/13/3
f 51/16/4 57/15/4 56/18/4 50/17/4
f 49/20/5 55/19/5 54/23/5 48/24/5
f 48/24/6 54/23/6 59/22/6 53/21/6
f 55/19/7 56/18/7 57/15/7 58/14/7 59/22/7 54/23/7
f 49/20/8 48/24/8 53/21/8 52/13/8 51/16/8 50/17/8
usemtl M_PCL_Flat_Grey_Light
f 5/25/7 6/26/7 3/27/7 2/28/7
f 1/29/7 3/27/7 60/30/7 4/31/7
f 19/32/9 25/33/9 7/34/9 1/29/9
f 21/35/10 61/36/10 60/30/10 3/27/10
f 62/37/9 19/32/9 1/29/9 4/31/9
f 20/38/11 23/39/11 5/25/11 2/28/11
f 10/40/7 7/34/7 8/41/7 2/28/7 12/42/7 9/43/7 11/44/7
f 14/45/7 1/29/7 7/34/7 10/40/7 17/46/7
f 22/47/12 24/48/12 6/26/12
f 24/48/12 21/35/12 3/27/12 6/26/12
f 35/49/13 17/46/13 10/40/13 11/44/13 29/50/13 28/51/13
f 23/39/11 18/52/11 5/25/11
f 9/43/14 27/53/14 29/50/14 11/44/14
f 30/54/15 12/42/15 15/55/15 33/56/15
f 32/57/16 14/45/16 17/46/16 35/49/16
f 33/56/17 15/55/17 16/58/17 34/59/17
f 31/60/18 13/61/18 14/45/18 32/57/18
f 34/59/19 16/58/19 13/61/19 31/60/19
f 12/42/20 30/54/20 27/53/20 9/43/20
f 25/33/21 26/62/21 8/41/21 7/34/21
f 23/39/8 20/38/8 21/35/8 24/48/8
f 19/32/8 62/37/8 61/36/8 21/35/8
f 28/51/8 29/50/8 27/53/8 30/54/8 20/38/8 26/62/8 25/33/8
f 30/54/8 33/56/8 34/59/8 31/60/8 32/57/8 35/49/8 28/51/8 25/33/8 19/32/8 21/35/8 20/38/8
f 8/41/22 26/62/22 20/38/22 2/28/22
f 12/42/7 2/28/7 3/27/7 16/58/7 15/55/7
f 16/58/7 3/27/7 1/29/7 14/45/7 13/61/7
usemtl M_PCL_Flat_White
f 18/63/23 22/64/23 6/65/23 5/66/23
f 18/63/24 23/67/24 24/68/24 22/64/24
usemtl M_PCL_Flat_Brown.Coffee
f 82/69/25 65/70/25 66/71/25 90/72/25
f 90/72/25 66/71/25 74/73/25 89/74/25
f 89/74/25 74/73/25 75/75/25 88/76/25
f 88/76/25 75/75/25 76/77/25 87/78/25
f 87/78/25 76/77/25 71/79/25 79/80/25
f 81/81/26 67/82/26 77/83/26 86/84/26
f 86/84/27 77/83/27 68/85/27 85/86/27
f 85/86/28 68/85/28 78/87/28 84/88/28
f 84/88/26 78/87/26 69/89/26 83/90/26
f 83/90/29 69/89/29 72/91/29 64/92/29
f 63/93/25 73/94/25 65/70/25 82/69/25
f 80/95/30 70/96/30 67/82/30 81/81/30
f 79/80/31 71/79/31 70/96/31 80/95/31
f 64/92/32 72/91/32 73/94/32 63/93/32
f 88/76/8 87/78/8 81/81/8 86/84/8
f 89/74/8 88/76/8 86/84/8 85/86/8
f 90/72/8 89/74/8 85/86/8 84/88/8
f 82/69/8 90/72/8 84/88/8 83/90/8
f 63/93/8 82/69/8 83/90/8 64/92/8
f 87/78/8 79/80/8 80/95/8 81/81/8
f 100/97/33 72/91/33 69/89/33 97/98/33
f 105/99/34 77/83/34 67/82/34 95/100/34
f 93/101/9 65/70/9 73/94/9 101/102/9
f 102/103/9 74/73/9 66/71/9 94/104/9
f 95/100/35 67/82/35 70/96/35 98/105/35
f 104/106/9 76/77/9 75/75/9 103/107/9
f 98/105/3 70/96/3 71/79/3 99/108/3
f 97/98/34 69/89/34 78/87/34 106/109/34
f 101/102/2 73/94/2 72/91/2 100/97/2
f 106/109/36 78/87/36 68/85/36 96/110/36
f 103/107/9 75/75/9 74/73/9 102/103/9
f 96/110/37 68/85/37 77/83/37 105/99/37
f 99/108/9 71/79/9 76/77/9 104/106/9
f 110/111/38 118/112/38 94/104/38 93/101/38
f 118/112/38 117/113/38 102/103/38 94/104/38
f 117/113/38 116/114/38 103/107/38 102/103/38
f 116/114/38 115/115/38 104/106/38 103/107/38
f 115/115/38 107/116/38 99/108/38 104/106/38
f 109/117/39 114/118/39 105/99/39 95/100/39
f 114/118/40 113/119/40 96/110/40 105/99/40
f 113/119/41 112/120/41 106/109/41 96/110/41
f 112/120/39 111/121/39 97/98/39 106/109/39
f 111/121/42 92/122/42 100/97/42 97/98/42
f 91/123/38 110/111/38 93/101/38 101/102/38
f 108/124/43 109/117/43 95/100/43 98/105/43
f 107/116/44 108/124/44 98/105/44 99/108/44
f 92/122/45 91/123/45 101/102/45 100/97/45
f 116/114/7 114/118/7 109/117/7 115/115/7
f 117/113/7 113/119/7 114/118/7 116/114/7
f 118/112/7 112/120/7 113/119/7 117/113/7
f 110/111/7 111/121/7 112/120/7 118/112/7
f 91/123/7 92/122/7 111/121/7 110/111/7
f 115/115/7 109/117/7 108/124/7 107/116/7
f 94/104/9 66/71/9 65/70/9 93/101/9
