# Blender v3.0.1 OBJ File: 'Flat_Melee.blend'
# www.blender.org
mtllib Fire Axe.mtl
o Fire_Axe_Plane.010
v -0.013025 -0.516774 -0.026080
v -0.006094 -0.526554 -0.033049
v -0.006094 -0.267898 -0.033049
v -0.013025 -0.267898 -0.026080
v -0.013025 -0.267898 -0.000019
v -0.006094 -0.267898 0.007057
v -0.006094 -0.497268 0.017393
v -0.013025 -0.498063 0.010388
v -0.013025 -0.461744 -0.026080
v -0.006094 -0.461744 -0.033049
v -0.006094 -0.461744 0.007057
v -0.013025 -0.462320 -0.000024
v -0.008288 -0.252259 -0.024326
v -0.003743 -0.252259 -0.028872
v -0.003743 0.229742 -0.028872
v -0.008288 0.229742 -0.024326
v -0.008288 0.229742 -0.001666
v -0.003743 0.229742 0.002880
v -0.003743 -0.252259 0.002880
v -0.008288 -0.252259 -0.001666
v -0.009883 0.228487 -0.053907
v -0.009883 0.302826 -0.053907
v -0.000000 0.317361 0.107680
v -0.009883 0.220412 0.070673
v -0.009883 0.310901 0.070673
v -0.000000 0.213952 0.107679
v 0.009883 0.235494 0.070673
v 0.009883 0.250575 0.070673
v -0.009883 0.277170 -0.053907
v -0.000000 0.300126 0.110922
v -0.000000 0.282892 0.113806
v -0.000000 0.248422 0.113806
v -0.000000 0.231187 0.110922
v -0.000000 0.265657 0.115051
v -0.009883 0.282988 -0.082674
v -0.009883 0.297009 -0.082674
v 0.013025 -0.516774 -0.026080
v 0.006094 -0.526554 -0.033049
v 0.006094 -0.267898 -0.033049
v 0.013025 -0.267898 -0.026080
v 0.013025 -0.267898 -0.000019
v 0.006094 -0.267898 0.007057
v 0.006094 -0.497268 0.017393
v 0.013025 -0.498063 0.010388
v 0.013025 -0.461744 -0.026080
v 0.006094 -0.461744 -0.033049
v 0.006094 -0.461744 0.007057
v 0.013025 -0.462320 -0.000023
v 0.008288 -0.252259 -0.024326
v 0.003743 -0.252259 -0.028872
v 0.003743 0.229742 -0.028872
v 0.008288 0.229742 -0.024326
v 0.008288 0.229742 -0.001666
v 0.003743 0.229742 0.002880
v 0.003743 -0.252259 0.002880
v 0.008288 -0.252259 -0.001666
v 0.009883 0.228487 -0.053907
v 0.009883 0.302826 -0.053907
v 0.009883 0.220412 0.070673
v 0.009883 0.310901 0.070673
v 0.009883 0.277170 -0.053907
v 0.009883 0.282988 -0.082674
v 0.009883 0.297009 -0.082674
v -0.009883 0.289998 -0.109448
v 0.009883 0.289998 -0.109448
v 0.009883 0.291344 -0.104309
v -0.009883 0.291344 -0.104309
v -0.009883 0.288653 -0.104309
v 0.009883 0.288653 -0.104309
v 0.009883 0.265657 0.070673
v 0.009883 0.280738 0.070673
v 0.009883 0.295820 0.070673
v -0.009883 0.235494 0.070673
v -0.009883 0.250575 0.070673
v -0.009883 0.265657 0.070673
v -0.009883 0.280738 0.070673
v -0.009883 0.295820 0.070673
vt 0.066860 0.943509
vt 0.066860 0.943509
vt 0.066860 0.943509
vt 0.066860 0.943509
vt 0.066860 0.943509
vt 0.066860 0.943509
vt 0.066860 0.943509
vt 0.066860 0.943509
vt 0.066860 0.943509
vt 0.066860 0.943509
vt 0.066860 0.943509
vt 0.066860 0.943509
vt 0.066860 0.943509
vt 0.066860 0.943509
vt 0.066860 0.943509
vt 0.066860 0.943509
vt 0.066860 0.943509
vt 0.066860 0.943509
vt 0.066860 0.943509
vt 0.066860 0.943509
vt 0.066860 0.943509
vt 0.066860 0.943509
vt 0.066860 0.943509
vt 0.066860 0.943509
vt 0.066860 0.943509
vt 0.066860 0.943509
vt 0.066860 0.943509
vt 0.066860 0.943509
vt 0.066860 0.943509
vt 0.066860 0.943509
vt 0.066860 0.943509
vt 0.066860 0.943509
vt 0.939058 0.931580
vt 0.939058 0.931580
vt 0.939058 0.931580
vt 0.939058 0.931580
vt 0.939058 0.931580
vt 0.939058 0.931580
vt 0.939058 0.931580
vt 0.939058 0.931580
vt 0.939058 0.931580
vt 0.939058 0.931580
vt 0.939058 0.931580
vt 0.939058 0.931580
vt 0.939058 0.931580
vt 0.939058 0.931580
vt 0.939058 0.931580
vt 0.939058 0.931580
vt 0.939058 0.931580
vt 0.939058 0.931580
vt 0.939058 0.931580
vt 0.939058 0.931580
vt 0.939058 0.931580
vt 0.939058 0.931580
vt 0.939058 0.931580
vt 0.939058 0.931580
vt 0.939058 0.931580
vt 0.939058 0.931580
vt 0.939058 0.931580
vt 0.681906 0.815924
vt 0.681906 0.815924
vt 0.681906 0.815924
vt 0.681906 0.815924
vt 0.681906 0.815924
vt 0.681906 0.815924
vt 0.681906 0.815924
vt 0.681906 0.815924
vt 0.681906 0.815924
vt 0.681906 0.815924
vt 0.681906 0.815924
vt 0.681906 0.815924
vt 0.681906 0.815924
vt 0.681906 0.815924
vt 0.681906 0.815924
vt 0.681906 0.815924
vt 0.681906 0.815924
vt 0.681906 0.815924
vt 0.681906 0.815924
vt 0.681906 0.815924
vt 0.681906 0.815924
vt 0.681906 0.815924
vt 0.681906 0.815924
vt 0.681906 0.815924
vt 0.681906 0.815924
vt 0.681906 0.815924
vt 0.681906 0.815924
vt 0.681906 0.815924
vt 0.562160 0.422490
vt 0.562160 0.422490
vt 0.562160 0.422490
vt 0.562160 0.422490
vt 0.562160 0.422490
vt 0.562160 0.422490
vt 0.562160 0.422490
vt 0.562160 0.422490
vt 0.562160 0.422490
vt 0.562160 0.422490
vt 0.562160 0.422490
vt 0.562160 0.422490
vt 0.562160 0.422490
vt 0.562160 0.422490
vt 0.562160 0.422490
vt 0.562160 0.422490
vn -0.0000 0.2794 0.9602
vn -1.0000 0.0000 -0.0000
vn -0.0000 -0.8648 0.5021
vn -0.4944 -0.7609 0.4202
vn -0.0000 0.0000 1.0000
vn -0.7091 0.0000 -0.7051
vn -0.7083 0.1973 0.6778
vn 0.7083 0.1973 0.6778
vn 0.0000 0.0000 -1.0000
vn 0.4944 -0.7609 0.4202
vn -0.7145 -0.0000 0.6996
vn 1.0000 0.0000 0.0000
vn 0.7091 0.0000 -0.7051
vn 0.7145 -0.0000 0.6996
vn 0.0000 0.2581 -0.9661
vn 0.6795 0.2824 -0.6772
vn 0.9571 0.2899 0.0000
vn 0.6830 0.2804 0.6745
vn -0.0000 0.2581 0.9661
vn -0.6830 0.2804 0.6745
vn -0.9571 0.2899 -0.0000
vn -0.6795 0.2824 -0.6772
vn 0.0000 -0.9851 -0.1720
vn 0.0000 0.9851 -0.1720
vn 0.0000 0.9674 -0.2533
vn -0.9732 0.0204 0.2291
vn -0.9754 0.0085 0.2201
vn -0.9754 -0.0085 0.2201
vn -0.9732 -0.0204 0.2291
vn -0.9693 -0.0245 0.2446
vn 0.9693 -0.0245 0.2446
vn 0.0000 -0.9674 -0.2533
vn 0.9732 -0.0204 0.2291
vn 0.9754 -0.0085 0.2201
vn 0.9754 0.0085 0.2201
vn 0.9732 0.0204 0.2291
vn 0.9693 0.0245 0.2446
vn -0.9693 0.0245 0.2446
vn 0.0000 -0.9802 -0.1982
vn 0.0000 0.9802 -0.1982
vn 0.0000 0.9979 -0.0647
vn 0.0000 -0.9979 -0.0647
vn 0.0000 1.0000 0.0000
vn -0.7071 0.0000 -0.7071
vn -0.7071 0.0000 0.7071
vn 0.7071 0.0000 -0.7071
vn 0.7071 0.0000 0.7071
usemtl M_PCL_Flat_Black
s off
f 47/1/1 11/2/1 7/3/1 43/4/1
f 4/5/2 9/6/2 12/7/2 5/8/2
f 2/9/3 38/10/3 43/4/3 7/3/3
f 2/9/4 7/3/4 8/11/4 1/12/4
f 42/13/5 6/14/5 11/2/5 47/1/5
f 1/12/6 9/6/6 10/15/6 2/9/6
f 12/7/7 8/11/7 7/3/7 11/2/7
f 48/16/8 47/1/8 43/4/8 44/17/8
f 46/18/9 38/10/9 2/9/9 10/15/9
f 9/6/6 4/5/6 3/19/6 10/15/6
f 38/10/10 37/20/10 44/17/10 43/4/10
f 5/8/11 12/7/11 11/2/11 6/14/11
f 9/6/2 1/12/2 8/11/2 12/7/2
f 40/21/12 41/22/12 48/16/12 45/23/12
f 37/20/13 38/10/13 46/18/13 45/23/13
f 45/23/13 46/18/13 39/24/13 40/21/13
f 41/22/14 42/13/14 47/1/14 48/16/14
f 14/25/15 50/26/15 39/24/15 3/19/15
f 45/23/12 48/16/12 44/17/12 37/20/12
f 39/24/9 46/18/9 10/15/9 3/19/9
f 50/26/16 49/27/16 40/21/16 39/24/16
f 49/27/17 56/28/17 41/22/17 40/21/17
f 56/28/18 55/29/18 42/13/18 41/22/18
f 55/29/19 19/30/19 6/14/19 42/13/19
f 19/30/20 20/31/20 5/8/20 6/14/20
f 20/31/21 13/32/21 4/5/21 5/8/21
f 13/32/22 14/25/22 3/19/22 4/5/22
usemtl M_PCL_Flat_White
f 24/33/23 59/34/23 26/35/23
f 23/36/24 60/37/24 25/38/24
f 67/39/25 66/40/25 65/41/25 64/42/25
f 30/43/26 77/44/26 76/45/26 31/46/26
f 31/46/27 76/45/27 75/47/27 34/48/27
f 34/48/28 75/47/28 74/49/28 32/50/28
f 73/51/29 33/52/29 32/50/29 74/49/29
f 24/33/30 26/35/30 33/52/30 73/51/30
f 66/40/12 69/53/12 65/41/12
f 68/54/2 67/39/2 64/42/2
f 33/52/31 26/35/31 59/34/31 27/55/31
f 68/54/32 64/42/32 65/41/32 69/53/32
f 32/50/33 33/52/33 27/55/33 28/56/33
f 28/56/34 70/57/34 34/48/34 32/50/34
f 70/57/35 71/58/35 31/46/35 34/48/35
f 30/43/36 31/46/36 71/58/36 72/59/36
f 72/59/37 60/37/37 23/36/37 30/43/37
f 25/38/38 77/44/38 30/43/38 23/36/38
usemtl M_PCL_Flat_Red.Maroon
f 61/60/39 29/61/39 35/62/39 62/63/39
f 22/64/40 58/65/40 63/66/40 36/67/40
f 22/64/2 36/67/2 35/62/2 29/61/2
f 29/61/2 21/68/2 24/69/2 73/70/2 74/71/2 75/72/2 76/73/2 77/74/2 25/75/2 22/64/2
f 72/76/12 71/77/12 70/78/12 28/79/12 27/80/12 59/81/12 57/82/12 61/60/12 58/65/12 60/83/12
f 22/64/41 25/75/41 60/83/41 58/65/41
f 58/65/12 61/60/12 62/63/12 63/66/12
f 59/81/42 24/69/42 21/68/42 57/82/42
f 62/63/32 35/62/32 68/84/32 69/85/32
f 36/67/25 63/66/25 66/86/25 67/87/25
f 63/66/12 62/63/12 69/85/12 66/86/12
f 35/62/2 36/67/2 67/87/2 68/84/2
f 61/60/9 57/82/9 21/68/9 29/61/9
usemtl M_PCL_Flat_Yellow_Light
f 18/88/43 54/89/43 53/90/43 52/91/43 51/92/43 15/93/43 16/94/43 17/95/43
f 54/89/5 18/88/5 19/96/5 55/97/5
f 15/93/44 14/98/44 13/99/44 16/94/44
f 17/95/45 20/100/45 19/96/45 18/88/45
f 16/94/2 13/99/2 20/100/2 17/95/2
f 51/92/9 50/101/9 14/98/9 15/93/9
f 51/92/46 52/91/46 49/102/46 50/101/46
f 53/90/47 54/89/47 55/97/47 56/103/47
f 52/91/12 53/90/12 56/103/12 49/102/12
