# Blender v3.0.1 OBJ File: 'Flat_Melee.blend'
# www.blender.org
mtllib Hand Axe.mtl
o Hand_Axe_Plane.005
v 0.006111 0.212332 0.007114
v 0.006111 0.030129 0.007114
v 0.006111 0.212332 -0.038395
v 0.006111 0.030129 -0.038395
v 0.006111 0.143886 0.007114
v 0.006111 0.143886 -0.038395
v 0.006111 0.207173 -0.045715
v 0.006111 0.149045 -0.045715
v 0.006111 0.222180 0.080978
v 0.006111 0.112420 0.080978
v 0.006629 0.016394 0.009001
v 0.006322 0.016077 -0.040431
v 0.007776 -0.023002 0.009950
v 0.006522 -0.048783 0.009008
v 0.007776 -0.047386 -0.041378
v 0.007776 -0.023002 -0.041378
v 0.009364 -0.102659 -0.041378
v 0.008620 -0.085489 0.008832
v 0.010864 -0.107119 0.004148
v 0.011790 -0.112467 -0.030437
v 0.009364 -0.108195 -0.041378
v 0.016356 -0.065236 -0.021256
v 0.016356 -0.058658 -0.017459
v 0.016356 -0.058658 -0.009864
v 0.016356 -0.065236 -0.006066
v 0.016356 -0.071813 -0.009864
v 0.016356 -0.071813 -0.017459
v 0.016356 -0.002575 -0.021256
v 0.016356 0.004003 -0.017459
v 0.016356 0.004003 -0.009864
v 0.016356 -0.002575 -0.006066
v 0.016356 -0.009152 -0.009864
v 0.016356 -0.009152 -0.017459
v 0.000000 -0.065236 -0.021256
v 0.000000 -0.058658 -0.017459
v 0.000000 -0.058658 -0.009864
v 0.000000 -0.065236 -0.006066
v 0.000000 -0.071813 -0.009864
v 0.000000 -0.071813 -0.017459
v 0.000000 -0.002575 -0.021256
v 0.000000 0.004003 -0.017459
v 0.000000 0.004003 -0.009864
v 0.000000 -0.002575 -0.006066
v 0.000000 -0.009152 -0.009864
v 0.000000 -0.009152 -0.017459
v 0.007776 0.036846 -0.041378
v 0.012851 0.016077 -0.028164
v 0.012823 -0.021675 -0.028169
v 0.012896 -0.048708 -0.028328
v 0.010478 -0.079313 -0.029858
v 0.007776 0.036846 0.009001
v 0.012720 0.016348 0.000438
v 0.012693 -0.021658 0.000438
v 0.012806 -0.048718 0.000438
v 0.010864 -0.085489 0.004148
v 0.007776 -0.080500 0.010176
v 0.011790 -0.114955 0.001113
v 0.010393 -0.079313 0.000438
v 0.000000 -0.084387 0.008667
v 0.000000 -0.108654 0.003411
v 0.000000 -0.084387 0.003411
v 0.007776 0.017669 -0.041378
v 0.015204 0.017669 -0.027214
v 0.007776 -0.047386 0.009950
v 0.006427 -0.021611 0.009001
v 0.006427 -0.021674 -0.040431
v 0.006427 -0.048710 -0.040376
v 0.015204 -0.023002 -0.027214
v 0.015204 -0.047386 -0.027214
v 0.006524 -0.079231 0.009122
v 0.007713 -0.098422 -0.040378
v 0.012710 -0.080500 -0.028838
v 0.015204 0.017669 -0.001752
v 0.015204 -0.023002 -0.001752
v 0.015204 -0.047386 -0.001752
v 0.012710 -0.080500 -0.001752
v -0.000000 0.203887 0.093715
v 0.009016 0.017669 0.008806
v 0.008620 -0.102255 0.016277
v 0.008620 -0.092279 0.017518
v 0.005053 -0.104988 0.021403
v 0.005308 -0.091460 0.023176
v 0.000000 -0.103166 0.017056
v 0.000000 -0.092039 0.018436
v -0.000000 0.112420 0.091500
v -0.000000 0.222180 0.091500
v -0.000000 0.185593 0.095475
v -0.000000 0.167300 0.096193
v -0.000000 0.149007 0.095475
v -0.000000 0.130714 0.093715
v -0.006112 0.212332 0.007114
v -0.006112 0.030129 0.007114
v -0.006111 0.212332 -0.038395
v -0.006112 0.030129 -0.038395
v -0.006112 0.143886 0.007114
v -0.006111 0.143886 -0.038395
v -0.006111 0.207173 -0.045715
v -0.006111 0.149045 -0.045715
v -0.006112 0.222180 0.080978
v -0.006112 0.112420 0.080978
v -0.006629 0.016394 0.009001
v -0.006322 0.016077 -0.040431
v -0.007776 -0.023002 0.009950
v -0.006522 -0.048783 0.009008
v -0.007776 -0.047386 -0.041378
v -0.007776 -0.023002 -0.041378
v -0.009364 -0.102659 -0.041378
v -0.008620 -0.085489 0.008832
v -0.010864 -0.107119 0.004148
v -0.011790 -0.112467 -0.030437
v -0.009364 -0.108195 -0.041378
v -0.016356 -0.065236 -0.021256
v -0.016356 -0.058658 -0.017459
v -0.016356 -0.058658 -0.009864
v -0.016356 -0.065236 -0.006066
v -0.016356 -0.071813 -0.009864
v -0.016356 -0.071813 -0.017459
v -0.016356 -0.002575 -0.021256
v -0.016356 0.004003 -0.017459
v -0.016356 0.004003 -0.009864
v -0.016356 -0.002575 -0.006066
v -0.016356 -0.009152 -0.009864
v -0.016356 -0.009152 -0.017459
v -0.007776 0.036846 -0.041378
v -0.012851 0.016077 -0.028164
v -0.012823 -0.021675 -0.028169
v -0.012896 -0.048708 -0.028328
v -0.010478 -0.079313 -0.029858
v -0.007776 0.036846 0.009001
v -0.012719 0.016348 0.000438
v -0.012693 -0.021658 0.000438
v -0.012806 -0.048718 0.000438
v -0.010864 -0.085489 0.004148
v -0.007776 -0.080500 0.010176
v -0.011790 -0.114955 0.001113
v -0.010393 -0.079313 0.000438
v -0.007776 0.017669 -0.041378
v -0.015204 0.017669 -0.027214
v -0.007776 -0.047386 0.009950
v -0.006427 -0.021611 0.009001
v -0.006427 -0.021674 -0.040431
v -0.006427 -0.048710 -0.040376
v -0.015204 -0.023002 -0.027214
v -0.015204 -0.047386 -0.027214
v -0.006524 -0.079231 0.009122
v -0.007713 -0.098422 -0.040378
v -0.012710 -0.080500 -0.028838
v -0.015204 0.017669 -0.001752
v -0.015204 -0.023002 -0.001752
v -0.015204 -0.047386 -0.001752
v -0.012710 -0.080500 -0.001752
v -0.009016 0.017669 0.008806
v -0.008620 -0.102255 0.016277
v -0.008620 -0.092279 0.017518
v -0.005053 -0.104988 0.021403
v -0.005308 -0.091460 0.023176
v 0.006111 0.130714 0.080978
v 0.006111 0.149007 0.080978
v 0.006111 0.167300 0.080978
v 0.006111 0.185593 0.080978
v 0.006111 0.203887 0.080978
v -0.006112 0.130714 0.080978
v -0.006112 0.149007 0.080978
v -0.006112 0.167300 0.080978
v -0.006112 0.185593 0.080978
v -0.006112 0.203887 0.080978
vt 0.086793 0.933555
vt 0.086793 0.933555
vt 0.086793 0.933555
vt 0.086793 0.933555
vt 0.086793 0.933555
vt 0.086793 0.933555
vt 0.086793 0.933555
vt 0.086793 0.933555
vt 0.086793 0.933555
vt 0.086793 0.933555
vt 0.086793 0.933555
vt 0.086793 0.933555
vt 0.086793 0.933555
vt 0.086793 0.933555
vt 0.086793 0.933555
vt 0.086793 0.933555
vt 0.086793 0.933555
vt 0.086793 0.933555
vt 0.086793 0.933555
vt 0.086793 0.933555
vt 0.086793 0.933555
vt 0.086793 0.933555
vt 0.086793 0.933555
vt 0.086793 0.933555
vt 0.086793 0.933555
vt 0.086793 0.933555
vt 0.086793 0.933555
vt 0.086793 0.933555
vt 0.086793 0.933555
vt 0.086793 0.933555
vt 0.086793 0.933555
vt 0.086793 0.933555
vt 0.086793 0.933555
vt 0.086793 0.933555
vt 0.086793 0.933555
vt 0.086793 0.933555
vt 0.086793 0.933555
vt 0.086793 0.933555
vt 0.086793 0.933555
vt 0.086793 0.933555
vt 0.086793 0.933555
vt 0.086793 0.933555
vt 0.086793 0.933555
vt 0.086793 0.933555
vt 0.086793 0.933555
vt 0.086793 0.933555
vt 0.086793 0.933555
vt 0.086793 0.933555
vt 0.086793 0.933555
vt 0.086793 0.933555
vt 0.086793 0.933555
vt 0.086793 0.933555
vt 0.086793 0.933555
vt 0.086793 0.933555
vt 0.086793 0.933555
vt 0.086793 0.933555
vt 0.086793 0.933555
vt 0.086793 0.933555
vt 0.086793 0.933555
vt 0.086793 0.933555
vt 0.086793 0.933555
vt 0.086793 0.933555
vt 0.086793 0.933555
vt 0.086793 0.933555
vt 0.086793 0.933555
vt 0.086793 0.933555
vt 0.086793 0.933555
vt 0.086793 0.933555
vt 0.195162 0.930637
vt 0.195162 0.930637
vt 0.195162 0.930637
vt 0.195162 0.930637
vt 0.195162 0.930637
vt 0.195162 0.930637
vt 0.195162 0.930637
vt 0.195162 0.930637
vt 0.195162 0.930637
vt 0.195162 0.930637
vt 0.195162 0.930637
vt 0.195162 0.930637
vt 0.195162 0.930637
vt 0.195162 0.930637
vt 0.195162 0.930637
vt 0.195162 0.930637
vt 0.195162 0.930637
vt 0.195162 0.930637
vt 0.195162 0.930637
vt 0.195162 0.930637
vt 0.195162 0.930637
vt 0.195162 0.930637
vt 0.195162 0.930637
vt 0.195162 0.930637
vt 0.195162 0.930637
vt 0.195162 0.930637
vt 0.195162 0.930637
vt 0.195162 0.930637
vt 0.195162 0.930637
vt 0.195162 0.930637
vt 0.930936 0.925716
vt 0.930936 0.925716
vt 0.930936 0.925716
vt 0.930936 0.925716
vt 0.930936 0.925716
vt 0.930936 0.925716
vt 0.930936 0.925716
vt 0.930936 0.925716
vt 0.930936 0.925716
vt 0.930936 0.925716
vt 0.930936 0.925716
vt 0.930936 0.925716
vt 0.930936 0.925716
vt 0.930936 0.925716
vt 0.930936 0.925716
vt 0.930936 0.925716
vt 0.930936 0.925716
vt 0.930936 0.925716
vt 0.930936 0.925716
vt 0.930936 0.925716
vt 0.930936 0.925716
vt 0.106275 0.314668
vt 0.106275 0.314668
vt 0.106275 0.314668
vt 0.106275 0.314668
vt 0.106275 0.314668
vt 0.106275 0.314668
vt 0.106275 0.314668
vt 0.106275 0.314668
vt 0.106275 0.314668
vt 0.106275 0.314668
vt 0.106275 0.314668
vt 0.106275 0.314668
vt 0.106275 0.314668
vt 0.106275 0.314668
vt 0.106275 0.314668
vt 0.106275 0.314668
vt 0.106275 0.314668
vt 0.106275 0.314668
vt 0.106275 0.314668
vt 0.106275 0.314668
vt 0.106275 0.314668
vt 0.106275 0.314668
vt 0.106275 0.314668
vt 0.106275 0.314668
vt 0.106275 0.314668
vt 0.106275 0.314668
vt 0.106275 0.314668
vt 0.106275 0.314668
vt 0.106275 0.314668
vt 0.106275 0.314668
vt 0.106275 0.314668
vt 0.106275 0.314668
vt 0.106275 0.314668
vt 0.106275 0.314668
vt 0.106275 0.314668
vt 0.106275 0.314668
vt 0.106275 0.314668
vt 0.106275 0.314668
vt 0.106275 0.314668
vt 0.106275 0.314668
vt 0.106275 0.314668
vt 0.106275 0.314668
vt 0.106275 0.314668
vt 0.106275 0.314668
vt 0.106275 0.314668
vt 0.106275 0.314668
vt 0.106275 0.314668
vt 0.106275 0.314668
vt 0.106275 0.314668
vt 0.106275 0.314668
vt 0.106275 0.314668
vt 0.106275 0.314668
vt 0.106275 0.314668
vt 0.106275 0.314668
vt 0.106275 0.314668
vt 0.106275 0.314668
vt 0.106275 0.314668
vt 0.106275 0.314668
vt 0.106275 0.314668
vt 0.106275 0.314668
vt 0.106275 0.314668
vt 0.106275 0.314668
vt 0.106275 0.314668
vt 0.106275 0.314668
vt 0.106275 0.314668
vt 0.106275 0.314668
vt 0.106275 0.314668
vt 0.106275 0.314668
vt 0.106275 0.314668
vt 0.106275 0.314668
vt 0.106275 0.314668
vt 0.106275 0.314668
vt 0.106275 0.314668
vt 0.106275 0.314668
vt 0.106275 0.314668
vt 0.106275 0.314668
vt 0.106275 0.314668
vt 0.106275 0.314668
vt 0.106275 0.314668
vt 0.106275 0.314668
vt 0.106275 0.314668
vt 0.106275 0.314668
vt 0.106275 0.314668
vt 0.106275 0.314668
vt 0.106275 0.314668
vt 0.106275 0.314668
vt 0.106275 0.314668
vt 0.106275 0.314668
vt 0.106275 0.314668
vt 0.106275 0.314668
vt 0.106275 0.314668
vt 0.106275 0.314668
vt 0.106275 0.314668
vn 0.0000 0.0000 -1.0000
vn 0.0000 0.0000 1.0000
vn 0.0000 0.0037 1.0000
vn 0.9273 -0.0059 -0.3744
vn 0.8847 0.0009 -0.4662
vn 0.0000 1.0000 0.0000
vn 0.0000 0.5000 0.8660
vn 0.0000 -0.5000 -0.8660
vn 0.0000 -0.5000 0.8660
vn 0.0000 0.5000 -0.8660
vn 0.0000 -1.0000 0.0000
vn 1.0000 0.0000 0.0000
vn 0.8614 -0.0331 0.5069
vn 0.8109 -0.0024 0.5851
vn -0.9273 -0.0059 -0.3744
vn -0.8847 0.0009 -0.4662
vn -1.0000 0.0000 0.0000
vn -0.8614 -0.0331 0.5069
vn -0.8109 -0.0024 0.5851
vn 0.0000 -0.8174 -0.5761
vn 0.0000 0.8174 -0.5761
vn 0.0000 0.9912 -0.1322
vn 0.0000 -0.9200 -0.3919
vn -0.9248 0.0075 0.3804
vn -0.9248 -0.0075 0.3804
vn -0.9122 -0.0197 0.4094
vn 0.9248 0.0075 0.3804
vn -0.8849 -0.0282 0.4650
vn 0.8849 -0.0282 0.4650
vn 0.9122 -0.0197 0.4094
vn 0.9248 -0.0075 0.3804
vn 0.9122 0.0197 0.4094
vn 0.8849 0.0282 0.4650
vn -0.9122 0.0197 0.4094
vn -0.8849 0.0282 0.4650
vn 0.8856 0.0000 -0.4645
vn 0.9972 -0.0751 -0.0000
vn 0.9996 -0.0277 -0.0012
vn 0.0000 -0.9969 -0.0786
vn 0.9734 -0.0141 -0.2285
vn 0.8443 -0.0000 0.5359
vn 0.0000 -0.9315 -0.3637
vn -0.0676 0.0000 0.9977
vn -0.1161 0.9181 -0.3789
vn 0.9144 0.0886 0.3951
vn 0.9550 -0.0005 0.2965
vn 0.9282 -0.1660 0.3331
vn -0.1112 -0.9935 -0.0251
vn 0.9096 0.2648 0.3202
vn 0.0000 0.5638 0.8259
vn 0.0000 0.5809 -0.8140
vn 0.6077 -0.7264 -0.3209
vn 0.0000 0.6391 0.7691
vn 0.0000 -0.6035 -0.7973
vn 0.0000 0.2297 -0.9733
vn 0.5551 0.7794 -0.2904
vn 0.5652 -0.7686 -0.2996
vn 0.0000 -0.1300 0.9915
vn 0.0000 -0.5589 0.8292
vn 0.5088 0.3613 -0.7814
vn 0.4251 0.0120 -0.9051
vn 0.3730 -0.0001 -0.9278
vn 0.0839 -0.0047 0.9965
vn 0.6111 0.6763 0.4114
vn 0.6306 -0.6497 0.4245
vn 0.6017 0.7572 0.2539
vn 0.6805 -0.0524 0.7308
vn 0.6592 -0.0002 0.7520
vn 0.0000 -0.8975 0.4409
vn -0.0879 -0.7845 -0.6139
vn 0.8616 0.0506 0.5050
vn 0.5713 -0.7333 0.3686
vn 0.0000 0.7645 0.6446
vn 0.8467 -0.0767 0.5265
vn -0.1019 0.1226 -0.9872
vn 0.9325 0.3612 -0.0000
vn 0.0000 -0.5115 -0.8593
vn -0.8856 0.0000 -0.4645
vn -0.9972 -0.0751 -0.0000
vn -0.9996 -0.0277 -0.0012
vn -0.9734 -0.0141 -0.2285
vn -0.8443 -0.0000 0.5359
vn 0.0676 0.0000 0.9977
vn 0.1161 0.9181 -0.3789
vn -0.9144 0.0886 0.3951
vn -0.9550 -0.0005 0.2965
vn -0.9282 -0.1660 0.3331
vn 0.1112 -0.9935 -0.0251
vn -0.9096 0.2648 0.3202
vn -0.6077 -0.7264 -0.3209
vn -0.5551 0.7794 -0.2904
vn -0.5652 -0.7686 -0.2996
vn -0.5088 0.3613 -0.7814
vn -0.4251 0.0120 -0.9051
vn -0.3730 -0.0001 -0.9278
vn -0.0839 -0.0047 0.9965
vn -0.6111 0.6763 0.4114
vn -0.6306 -0.6497 0.4245
vn -0.6017 0.7572 0.2539
vn -0.6805 -0.0524 0.7308
vn -0.6592 -0.0002 0.7520
vn 0.0879 -0.7845 -0.6139
vn -0.8616 0.0506 0.5050
vn -0.5713 -0.7333 0.3686
vn -0.8467 -0.0767 0.5265
vn 0.1019 0.1226 -0.9872
vn -0.9325 0.3612 -0.0000
usemtl M_PCL_Flat_Black
s off
f 102/1/1 12/2/1 66/3/1 141/4/1
f 146/5/1 142/6/1 67/7/1 71/8/1
f 140/9/2 65/10/2 11/11/2 101/12/2
f 104/13/3 145/14/3 70/15/3 14/16/3
f 50/17/4 71/8/4 67/7/4 49/18/4
f 47/19/5 48/20/5 66/3/5 12/2/5
f 24/21/6 23/22/6 35/23/6 36/24/6
f 31/25/7 30/26/7 42/27/7 43/28/7
f 22/29/8 27/30/8 39/31/8 34/32/8
f 25/33/7 24/21/7 36/24/7 37/34/7
f 32/35/9 31/25/9 43/28/9 44/36/9
f 29/37/10 28/38/10 40/39/10 41/40/10
f 26/41/9 25/33/9 37/34/9 38/42/9
f 33/43/11 32/35/11 44/36/11 45/44/11
f 23/22/10 22/29/10 34/32/10 35/23/10
f 30/26/6 29/37/6 41/40/6 42/27/6
f 27/30/11 26/41/11 38/42/11 39/31/11
f 28/38/8 33/43/8 45/44/8 40/39/8
f 23/22/12 24/21/12 25/33/12 26/41/12 27/30/12 22/29/12
f 29/37/12 30/26/12 31/25/12 32/35/12 33/43/12 28/38/12
f 14/16/13 70/15/13 58/45/13 54/46/13
f 11/11/14 65/10/14 53/47/14 52/48/14
f 128/49/15 127/50/15 142/6/15 146/5/15
f 125/51/16 102/1/16 141/4/16 126/52/16
f 114/53/6 36/24/6 35/23/6 113/54/6
f 121/55/7 43/28/7 42/27/7 120/56/7
f 112/57/8 34/32/8 39/31/8 117/58/8
f 115/59/7 37/34/7 36/24/7 114/53/7
f 122/60/9 44/36/9 43/28/9 121/55/9
f 119/61/10 41/40/10 40/39/10 118/62/10
f 116/63/9 38/42/9 37/34/9 115/59/9
f 123/64/11 45/44/11 44/36/11 122/60/11
f 113/54/10 35/23/10 34/32/10 112/57/10
f 120/56/6 42/27/6 41/40/6 119/61/6
f 117/58/11 39/31/11 38/42/11 116/63/11
f 118/62/8 40/39/8 45/44/8 123/64/8
f 113/54/17 112/57/17 117/58/17 116/63/17 115/59/17 114/53/17
f 119/61/17 118/62/17 123/64/17 122/60/17 121/55/17 120/56/17
f 104/13/18 132/65/18 136/66/18 145/14/18
f 101/12/19 130/67/19 131/68/19 140/9/19
usemtl M_PCL_Flat_Black_Lighter
f 5/69/12 2/70/12 4/71/12 6/72/12
f 1/73/12 5/69/12 6/72/12 3/74/12
f 3/74/12 6/72/12 8/75/12 7/76/12
f 91/77/6 1/73/6 3/74/6 93/78/6
f 97/79/1 7/76/1 8/75/1 98/80/1
f 98/80/20 8/75/20 6/72/20 96/81/20
f 92/82/2 2/70/2 5/69/2 95/83/2
f 93/78/21 3/74/21 7/76/21 97/79/21
f 96/81/1 6/72/1 4/71/1 94/84/1
f 95/83/17 96/81/17 94/84/17 92/82/17
f 91/77/17 93/78/17 96/81/17 95/83/17
f 93/78/17 97/79/17 98/80/17 96/81/17
f 91/77/17 95/83/17 100/85/17 162/86/17 163/87/17 164/88/17 165/89/17 166/90/17 99/91/17
f 1/73/12 9/92/12 161/93/12 160/94/12 159/95/12 158/96/12 157/97/12 10/98/12 5/69/12
f 91/77/22 99/91/22 9/92/22 1/73/22
f 5/69/23 10/98/23 100/85/23 95/83/23
usemtl M_PCL_Flat_White
f 86/99/6 9/100/6 99/101/6
f 10/102/11 85/103/11 100/104/11
f 165/105/24 164/106/24 88/107/24 87/108/24
f 88/107/25 164/106/25 163/109/25 89/110/25
f 89/110/26 163/109/26 162/111/26 90/112/26
f 160/113/27 87/108/27 88/107/27 159/114/27
f 90/112/28 162/111/28 100/104/28 85/103/28
f 90/112/29 85/103/29 10/102/29 157/115/29
f 89/110/30 90/112/30 157/115/30 158/116/30
f 88/107/31 89/110/31 158/116/31 159/114/31
f 160/113/32 161/117/32 77/118/32 87/108/32
f 161/117/33 9/100/33 86/99/33 77/118/33
f 77/118/34 166/119/34 165/105/34 87/108/34
f 86/99/35 99/101/35 166/119/35 77/118/35
usemtl M_PCL_Flat_Olive_Lighter
f 74/120/12 68/121/12 63/122/12 73/123/12
f 124/124/6 129/125/6 51/126/6 46/127/6
f 139/128/2 64/129/2 13/130/2 103/131/2
f 107/132/1 17/133/1 21/134/1 111/135/1
f 63/122/36 62/136/36 46/127/36
f 106/137/1 16/138/1 15/139/1 105/140/1
f 75/141/12 69/142/12 68/121/12 74/120/12
f 76/143/37 72/144/37 69/142/37 75/141/37
f 76/143/38 57/145/38 20/146/38 72/144/38
f 68/121/36 69/142/36 15/139/36 16/138/36
f 135/147/39 110/148/39 20/146/39 57/145/39
f 72/144/40 20/146/40 21/134/40 17/133/40
f 13/130/41 64/129/41 75/141/41 74/120/41
f 20/146/42 110/148/42 111/135/42 21/134/42
f 19/149/43 55/150/43 61/151/43 60/152/43
f 79/153/44 19/149/44 60/152/44 83/154/44
f 18/155/45 55/150/45 76/143/45 56/156/45
f 55/150/46 19/149/46 57/145/46 76/143/46
f 19/149/47 79/153/47 81/157/47 57/145/47
f 55/150/48 18/155/48 59/158/48 61/151/48
f 80/159/49 18/155/49 56/156/49 82/160/49
f 140/161/50 103/131/50 13/130/50 65/162/50
f 16/138/51 106/137/51 141/163/51 66/164/51
f 47/165/52 12/166/52 62/136/52 63/122/52
f 145/167/53 134/168/53 56/156/53 70/169/53
f 142/170/54 105/140/54 15/139/54 67/171/54
f 51/126/2 129/125/2 101/172/2 11/173/2
f 17/133/55 107/132/55 146/174/55 71/175/55
f 66/164/56 48/176/56 68/121/56 16/138/56
f 49/177/57 67/171/57 15/139/57 69/142/57
f 156/178/58 155/179/58 81/157/58 82/160/58
f 64/129/59 139/128/59 104/180/59 14/181/59
f 71/175/60 50/182/60 72/144/60 17/133/60
f 50/182/61 49/177/61 69/142/61 72/144/61
f 48/176/62 47/165/62 63/122/62 68/121/62
f 11/173/63 78/183/63 51/126/63
f 53/184/64 65/162/64 13/130/64 74/120/64
f 14/181/65 54/185/65 75/141/65 64/129/65
f 58/186/66 70/169/66 56/156/66 76/143/66
f 54/185/67 58/186/67 76/143/67 75/141/67
f 52/187/68 53/184/68 74/120/68 73/123/68
f 155/179/69 135/147/69 57/145/69 81/157/69
f 18/155/70 80/159/70 84/188/70 59/158/70
f 51/126/71 78/183/71 73/123/71
f 78/183/72 11/173/72 52/187/72 73/123/72
f 156/178/73 82/160/73 56/156/73 134/168/73
f 81/157/74 79/153/74 80/159/74 82/160/74
f 84/188/75 80/159/75 79/153/75 83/154/75
f 73/123/76 63/122/76 46/127/76 51/126/76
f 102/189/77 137/190/77 62/136/77 12/166/77
f 149/191/17 148/192/17 138/193/17 143/194/17
f 138/193/78 124/124/78 137/190/78
f 150/195/17 149/191/17 143/194/17 144/196/17
f 151/197/79 150/195/79 144/196/79 147/198/79
f 151/197/80 147/198/80 110/148/80 135/147/80
f 143/194/78 106/137/78 105/140/78 144/196/78
f 147/198/81 107/132/81 111/135/81 110/148/81
f 103/131/82 149/191/82 150/195/82 139/128/82
f 109/199/83 60/152/83 61/151/83 133/200/83
f 153/201/84 83/154/84 60/152/84 109/199/84
f 108/202/85 134/168/85 151/197/85 133/200/85
f 133/200/86 151/197/86 135/147/86 109/199/86
f 109/199/87 135/147/87 155/179/87 153/201/87
f 133/200/88 61/151/88 59/158/88 108/202/88
f 154/203/89 156/178/89 134/168/89 108/202/89
f 125/204/90 138/193/90 137/190/90 102/189/90
f 141/163/91 106/137/91 143/194/91 126/205/91
f 127/206/92 144/196/92 105/140/92 142/170/92
f 146/174/93 107/132/93 147/198/93 128/207/93
f 128/207/94 147/198/94 144/196/94 127/206/94
f 126/205/95 143/194/95 138/193/95 125/204/95
f 101/172/96 129/125/96 152/208/96
f 131/209/97 149/191/97 103/131/97 140/161/97
f 104/180/98 139/128/98 150/195/98 132/210/98
f 136/211/99 151/197/99 134/168/99 145/167/99
f 132/210/100 150/195/100 151/197/100 136/211/100
f 130/212/101 148/192/101 149/191/101 131/209/101
f 108/202/102 59/158/102 84/188/102 154/203/102
f 129/125/103 148/192/103 152/208/103
f 152/208/104 148/192/104 130/212/104 101/172/104
f 155/179/105 156/178/105 154/203/105 153/201/105
f 84/188/106 83/154/106 153/201/106 154/203/106
f 148/192/107 129/125/107 124/124/107 138/193/107
f 124/124/1 46/127/1 62/136/1 137/190/1
