# Blender v3.0.1 OBJ File: 'Flat_Melee.blend'
# www.blender.org
mtllib Machete.mtl
o Machete_Plane.007
v 0.004744 0.232084 -0.023173
v 0.004744 0.179389 0.025950
v 0.004744 0.196805 0.023192
v 0.004744 0.211752 0.015576
v 0.004744 0.223614 0.003714
v 0.004744 0.231230 -0.011233
v 0.000000 0.218154 0.024387
v 0.004744 -0.108608 -0.023173
v 0.004744 -0.108608 0.036708
v 0.000000 -0.071092 0.036708
v 0.004744 -0.071092 0.036708
v 0.000000 0.244745 -0.023173
v 0.000000 0.241588 -0.007868
v 0.000000 0.232425 0.010116
v 0.000000 0.200170 0.033550
v 0.000000 0.180235 0.036708
v 0.004744 -0.071092 0.025950
v 0.004744 -0.026369 -0.023173
v 0.004744 0.212615 -0.023173
v 0.000000 0.212615 -0.023173
v 0.000000 0.212615 -0.017096
v 0.000000 -0.237067 0.028052
v 0.000000 -0.273962 0.018784
v 0.000000 -0.139713 0.025283
v 0.000000 -0.257033 -0.015088
v 0.000000 -0.234167 0.026337
v 0.000000 -0.243234 0.049001
v 0.000000 -0.272205 0.046050
v 0.009505 -0.105262 0.035134
v 0.000000 -0.105262 0.041536
v 0.000000 -0.105262 -0.028998
v 0.009505 -0.105262 -0.021442
v 0.009505 -0.125528 0.035142
v 0.000000 -0.125528 0.041536
v 0.000000 -0.125528 -0.029036
v 0.009505 -0.125528 -0.021442
v 0.000000 -0.139713 -0.018153
v 0.009505 -0.139713 -0.011131
v 0.009505 -0.139713 0.018433
v 0.009505 -0.253710 -0.009068
v 0.009505 -0.237360 0.020552
v 0.000000 -0.130307 0.033559
v 0.009505 -0.130307 0.026999
v 0.000000 -0.130307 -0.022672
v 0.009505 -0.130307 -0.015502
v 0.009505 -0.267636 0.039657
v 0.009505 -0.244561 0.026170
v 0.004744 -0.014380 -0.017096
v 0.000000 -0.026369 -0.017096
v 0.004744 -0.026369 -0.017096
v 0.004744 -0.020374 -0.023173
v 0.004744 -0.002390 -0.017096
v 0.004744 -0.008385 -0.023173
v 0.004744 0.003604 -0.023173
v 0.004744 0.021588 -0.017096
v 0.004744 0.009599 -0.017096
v 0.004744 0.015593 -0.023173
v 0.004744 0.033577 -0.017096
v 0.004744 0.027582 -0.023173
v 0.004744 0.039571 -0.023173
v 0.004744 0.045566 -0.017096
v 0.004744 0.051560 -0.023173
v 0.004744 0.057555 -0.017096
v 0.004744 0.063549 -0.023173
v 0.004744 0.081533 -0.017096
v 0.004744 0.069544 -0.017096
v 0.004744 0.075538 -0.023173
v 0.004744 0.087528 -0.023173
v 0.004744 0.105511 -0.017096
v 0.004744 0.093522 -0.017096
v 0.004744 0.099517 -0.023173
v 0.004744 0.111506 -0.023173
v 0.004744 0.129489 -0.017096
v 0.004744 0.117500 -0.017096
v 0.004744 0.123495 -0.023173
v 0.004744 0.135484 -0.023173
v 0.004744 0.141478 -0.017096
v 0.004744 0.147473 -0.023173
v 0.004744 0.165457 -0.017096
v 0.004744 0.153467 -0.017096
v 0.004744 0.159462 -0.023173
v 0.004744 0.177446 -0.017096
v 0.004744 0.171451 -0.023173
v 0.004744 0.183440 -0.023173
v 0.004744 0.201424 -0.017096
v 0.004744 0.189435 -0.017096
v 0.004744 0.195429 -0.023173
v 0.004744 0.212615 -0.017096
v 0.004744 0.207418 -0.023173
v 0.012413 -0.232419 0.011960
v 0.012413 -0.239492 -0.000854
v 0.012413 -0.148192 -0.002493
v 0.012413 -0.148192 0.010144
v 0.001725 0.241990 -0.023173
v 0.001725 0.239334 -0.008600
v 0.001725 0.230507 0.008722
v 0.001725 0.199438 0.031296
v 0.001725 0.180051 0.034366
v 0.001725 0.216760 0.022470
v 0.001757 -0.071092 0.034258
v 0.009505 -0.249411 0.031564
v 0.009505 -0.251588 0.028024
v 0.009505 -0.261512 0.025748
v 0.009505 -0.264492 0.028015
v 0.009505 -0.267606 0.020380
v 0.009505 -0.254179 0.038870
v 0.009505 -0.250562 0.036341
v 0.009505 -0.249067 0.042080
v 0.009505 -0.264747 0.034592
v 0.009505 -0.261934 0.037869
v 0.000000 -0.257960 0.050369
v 0.009505 -0.257960 0.043712
v -0.004744 0.232084 -0.023173
v -0.004744 0.179389 0.025950
v -0.004744 0.196805 0.023192
v -0.004744 0.211752 0.015576
v -0.004744 0.223614 0.003714
v -0.004744 0.231230 -0.011233
v -0.004744 -0.108608 0.036708
v -0.004744 -0.071092 0.036708
v -0.004744 -0.108608 -0.023173
v -0.004744 -0.071092 0.025950
v -0.004744 -0.026369 -0.023173
v -0.004744 0.212615 -0.023173
v -0.009505 -0.105262 0.035134
v -0.009505 -0.105262 -0.021442
v -0.009505 -0.125528 0.035142
v -0.009505 -0.125528 -0.021442
v -0.009505 -0.139713 -0.011131
v -0.009505 -0.139713 0.018433
v -0.009505 -0.253710 -0.009068
v -0.009505 -0.237360 0.020552
v -0.009505 -0.130307 0.026999
v -0.009505 -0.130307 -0.015502
v -0.009505 -0.267636 0.039657
v -0.009505 -0.244561 0.026170
v -0.004744 -0.014380 -0.017096
v -0.004744 -0.026369 -0.017096
v -0.004744 -0.020374 -0.023173
v -0.004744 -0.002390 -0.017096
v -0.004744 -0.008385 -0.023173
v -0.004744 0.003604 -0.023173
v -0.004744 0.021588 -0.017096
v -0.004744 0.009599 -0.017096
v -0.004744 0.015593 -0.023173
v -0.004744 0.033577 -0.017096
v -0.004744 0.027582 -0.023173
v -0.004744 0.039571 -0.023173
v -0.004744 0.045566 -0.017096
v -0.004744 0.051560 -0.023173
v -0.004744 0.057555 -0.017096
v -0.004744 0.063549 -0.023173
v -0.004744 0.081533 -0.017096
v -0.004744 0.069544 -0.017096
v -0.004744 0.075538 -0.023173
v -0.004744 0.087528 -0.023173
v -0.004744 0.105511 -0.017096
v -0.004744 0.093522 -0.017096
v -0.004744 0.099517 -0.023173
v -0.004744 0.111506 -0.023173
v -0.004744 0.129489 -0.017096
v -0.004744 0.117500 -0.017096
v -0.004744 0.123495 -0.023173
v -0.004744 0.135484 -0.023173
v -0.004744 0.141478 -0.017096
v -0.004744 0.147473 -0.023173
v -0.004744 0.165457 -0.017096
v -0.004744 0.153467 -0.017096
v -0.004744 0.159462 -0.023173
v -0.004744 0.177446 -0.017096
v -0.004744 0.171451 -0.023173
v -0.004744 0.183440 -0.023173
v -0.004744 0.201424 -0.017096
v -0.004744 0.189435 -0.017096
v -0.004744 0.195429 -0.023173
v -0.004744 0.212615 -0.017096
v -0.004744 0.207418 -0.023173
v -0.012413 -0.232419 0.011960
v -0.012413 -0.239492 -0.000854
v -0.012413 -0.148192 -0.002493
v -0.012413 -0.148192 0.010144
v -0.001725 0.241990 -0.023173
v -0.001725 0.239334 -0.008600
v -0.001725 0.230507 0.008722
v -0.001725 0.199438 0.031296
v -0.001725 0.180051 0.034366
v -0.001725 0.216760 0.022470
v -0.001757 -0.071092 0.034258
v -0.009505 -0.249411 0.031564
v -0.009505 -0.251588 0.028024
v -0.009505 -0.261512 0.025748
v -0.009505 -0.264492 0.028015
v -0.009505 -0.267606 0.020380
v -0.009505 -0.254179 0.038870
v -0.009505 -0.250562 0.036341
v -0.009505 -0.249067 0.042080
v -0.009505 -0.264747 0.034592
v -0.009505 -0.261934 0.037869
v -0.009505 -0.257960 0.043712
vt 0.443890 0.942941
vt 0.443890 0.942941
vt 0.443890 0.942941
vt 0.443890 0.942941
vt 0.443890 0.942941
vt 0.443890 0.942941
vt 0.443890 0.942941
vt 0.443890 0.942941
vt 0.443890 0.942941
vt 0.443890 0.942941
vt 0.443890 0.942941
vt 0.443890 0.942941
vt 0.443890 0.942941
vt 0.443890 0.942941
vt 0.443890 0.942941
vt 0.443890 0.942941
vt 0.443890 0.942941
vt 0.443890 0.942941
vt 0.443890 0.942941
vt 0.443890 0.942941
vt 0.443890 0.942941
vt 0.443890 0.942941
vt 0.443890 0.942941
vt 0.443890 0.942941
vt 0.443890 0.942941
vt 0.443890 0.942941
vt 0.443890 0.942941
vt 0.443890 0.942941
vt 0.443890 0.942941
vt 0.443890 0.942941
vt 0.443890 0.942941
vt 0.443890 0.942941
vt 0.443890 0.942941
vt 0.443890 0.942941
vt 0.443890 0.942941
vt 0.443890 0.942941
vt 0.443890 0.942941
vt 0.443890 0.942941
vt 0.443890 0.942941
vt 0.443890 0.942941
vt 0.443890 0.942941
vt 0.443890 0.942941
vt 0.443890 0.942941
vt 0.443890 0.942941
vt 0.443890 0.942941
vt 0.443890 0.942941
vt 0.443890 0.942941
vt 0.443890 0.942941
vt 0.443890 0.942941
vt 0.443890 0.942941
vt 0.443890 0.942941
vt 0.443890 0.942941
vt 0.443890 0.942941
vt 0.443890 0.942941
vt 0.443890 0.942941
vt 0.443890 0.942941
vt 0.443890 0.942941
vt 0.443890 0.942941
vt 0.443890 0.942941
vt 0.443890 0.942941
vt 0.443890 0.942941
vt 0.443890 0.942941
vt 0.443890 0.942941
vt 0.443890 0.942941
vt 0.443890 0.942941
vt 0.443890 0.942941
vt 0.443890 0.942941
vt 0.443890 0.942941
vt 0.443890 0.942941
vt 0.443890 0.942941
vt 0.443890 0.942941
vt 0.443890 0.942941
vt 0.443890 0.942941
vt 0.443890 0.942941
vt 0.443890 0.942941
vt 0.443890 0.942941
vt 0.443890 0.942941
vt 0.443890 0.942941
vt 0.443890 0.942941
vt 0.443890 0.942941
vt 0.443890 0.942941
vt 0.443890 0.942941
vt 0.443890 0.942941
vt 0.443890 0.942941
vt 0.443890 0.942941
vt 0.443890 0.942941
vt 0.443890 0.942941
vt 0.443890 0.942941
vt 0.443890 0.942941
vt 0.443890 0.942941
vt 0.443890 0.942941
vt 0.443890 0.942941
vt 0.443890 0.942941
vt 0.443890 0.942941
vt 0.443890 0.942941
vt 0.443890 0.942941
vt 0.443890 0.942941
vt 0.443890 0.942941
vt 0.443890 0.942941
vt 0.443890 0.942941
vt 0.443890 0.942941
vt 0.443890 0.942941
vt 0.443890 0.942941
vt 0.443890 0.942941
vt 0.443890 0.942941
vt 0.443890 0.942941
vt 0.443890 0.942941
vt 0.443890 0.942941
vt 0.443890 0.942941
vt 0.443890 0.942941
vt 0.443890 0.942941
vt 0.443890 0.942941
vt 0.443890 0.942941
vt 0.443890 0.942941
vt 0.443890 0.942941
vt 0.443890 0.942941
vt 0.443890 0.942941
vt 0.443890 0.942941
vt 0.443890 0.942941
vt 0.443890 0.942941
vt 0.443890 0.942941
vt 0.443890 0.942941
vt 0.443890 0.942941
vt 0.443890 0.942941
vt 0.443890 0.942941
vt 0.932795 0.931916
vt 0.932795 0.931916
vt 0.932795 0.931916
vt 0.932795 0.931916
vt 0.932795 0.931916
vt 0.932795 0.931916
vt 0.932795 0.931916
vt 0.932795 0.931916
vt 0.932795 0.931916
vt 0.932795 0.931916
vt 0.932795 0.931916
vt 0.932795 0.931916
vt 0.932795 0.931916
vt 0.932795 0.931916
vt 0.932795 0.931916
vt 0.932795 0.931916
vt 0.932795 0.931916
vt 0.932795 0.931916
vt 0.932795 0.931916
vt 0.932795 0.931916
vt 0.932795 0.931916
vt 0.065428 0.802579
vt 0.065428 0.802579
vt 0.065428 0.802579
vt 0.065428 0.802579
vt 0.065428 0.802579
vt 0.065428 0.802579
vt 0.065428 0.802579
vt 0.065428 0.802579
vt 0.065428 0.802579
vt 0.065428 0.802579
vt 0.065428 0.802579
vt 0.065428 0.802579
vt 0.065428 0.802579
vt 0.065428 0.802579
vt 0.065428 0.802579
vt 0.065428 0.802579
vt 0.065428 0.802579
vt 0.065428 0.802579
vt 0.065428 0.802579
vt 0.065428 0.802579
vt 0.065428 0.802579
vt 0.065428 0.802579
vt 0.065428 0.802579
vt 0.065428 0.802579
vt 0.065428 0.802579
vt 0.065428 0.802579
vt 0.065428 0.802579
vt 0.065428 0.802579
vt 0.065428 0.802579
vt 0.065428 0.802579
vt 0.065428 0.802579
vt 0.065428 0.802579
vt 0.065428 0.802579
vt 0.065428 0.802579
vt 0.065428 0.802579
vt 0.065428 0.802579
vt 0.065428 0.802579
vt 0.065428 0.802579
vt 0.065428 0.802579
vt 0.065428 0.802579
vt 0.065428 0.802579
vt 0.065428 0.802579
vt 0.065428 0.802579
vt 0.065428 0.802579
vt 0.065428 0.802579
vt 0.065428 0.802579
vt 0.065428 0.802579
vt 0.065428 0.802579
vt 0.065428 0.802579
vt 0.065428 0.802579
vt 0.065428 0.802579
vt 0.065428 0.802579
vt 0.065428 0.802579
vt 0.065428 0.802579
vt 0.065428 0.802579
vt 0.065428 0.802579
vt 0.065428 0.802579
vt 0.065428 0.802579
vt 0.065428 0.802579
vt 0.065428 0.802579
vt 0.065428 0.802579
vt 0.065428 0.802579
vt 0.065428 0.802579
vt 0.065428 0.802579
vt 0.065428 0.802579
vt 0.065428 0.802579
vt 0.065428 0.802579
vt 0.065428 0.802579
vt 0.065428 0.802579
vn 0.0000 -1.0000 0.0000
vn 0.0000 0.0000 -1.0000
vn 0.0000 0.0000 1.0000
vn -0.0000 1.0000 -0.0000
vn 0.8035 -0.4784 0.3543
vn 0.0000 0.7119 -0.7022
vn 1.0000 0.0000 0.0000
vn 0.0000 -0.7119 -0.7022
vn 0.0000 0.7600 -0.6499
vn 0.9491 0.3121 0.0413
vn 0.9413 0.0528 0.3335
vn 0.9413 0.1533 0.3008
vn 0.9413 0.2387 0.2387
vn 0.9413 0.3008 0.1533
vn 0.9412 -0.0000 0.3380
vn -0.8035 -0.4784 0.3543
vn -1.0000 0.0000 0.0000
vn -0.9491 0.3121 0.0413
vn -0.9413 0.0528 0.3335
vn -0.9413 0.1533 0.3008
vn -0.9413 0.2387 0.2387
vn -0.9413 0.3008 0.1533
vn -0.9412 -0.0000 0.3380
vn 0.8089 -0.0001 0.5880
vn 0.8050 0.5286 0.2693
vn 0.8050 0.4195 0.4195
vn 0.8050 0.2693 0.5286
vn 0.8050 0.0928 0.5859
vn 0.8261 0.5532 0.1076
vn -0.8089 -0.0001 0.5880
vn -0.8050 0.5286 0.2693
vn -0.8050 0.4195 0.4195
vn -0.8050 0.2693 0.5286
vn -0.8050 0.0928 0.5859
vn -0.8261 0.5532 0.1076
vn 0.4652 -0.5904 0.6595
vn 0.5584 0.0002 0.8296
vn 0.5350 -0.7596 -0.3698
vn 0.3283 -0.8125 0.4817
vn 0.6232 0.0007 -0.7820
vn 0.5551 0.0137 0.8317
vn 0.5678 -0.0182 -0.8230
vn 0.5489 0.4911 0.6764
vn 0.5986 0.1009 0.7947
vn 0.5041 -0.8631 0.0320
vn 0.6257 0.7492 0.2170
vn 0.4301 -0.7130 -0.5538
vn 0.0000 -0.9722 -0.2343
vn 0.0000 0.1281 -0.9918
vn 0.0000 0.9993 0.0387
vn 0.5595 -0.3541 -0.7494
vn 0.9459 -0.2841 0.1568
vn 0.9459 -0.0059 -0.3245
vn 0.9459 0.3245 0.0000
vn 0.9459 0.0070 0.3244
vn 0.0000 -0.5732 -0.8194
vn 0.0000 0.7588 -0.6513
vn 0.0000 0.6053 0.7960
vn 0.0000 -0.2236 0.9747
vn 0.5882 -0.2672 0.7633
vn -0.4652 -0.5904 0.6595
vn -0.5584 0.0002 0.8296
vn -0.5350 -0.7596 -0.3698
vn -0.3283 -0.8125 0.4817
vn -0.6232 0.0007 -0.7820
vn -0.5551 0.0137 0.8317
vn -0.5678 -0.0182 -0.8230
vn -0.5489 0.4911 0.6764
vn -0.5986 0.1009 0.7947
vn -0.5041 -0.8631 0.0320
vn -0.6257 0.7492 0.2170
vn -0.4301 -0.7130 -0.5538
vn -0.5595 -0.3541 -0.7494
vn -0.9459 -0.2841 0.1568
vn -0.9459 -0.0059 -0.3245
vn -0.9459 0.3245 0.0000
vn -0.9459 0.0070 0.3244
vn -0.5882 -0.2672 0.7633
vn 0.0000 -0.8519 0.5238
usemtl M_PCL_Flat_Grey_Dark
s off
f 19/1/1 88/2/1 21/3/1 20/4/1
f 123/5/2 18/6/2 8/7/2 121/8/2
f 10/9/3 120/10/3 119/11/3 9/12/3 11/13/3
f 17/14/4 100/15/4 10/9/4 11/13/4
f 17/14/5 100/15/5 10/9/5 8/7/5
f 18/6/4 123/5/4 138/16/4 49/17/4 50/18/4
f 1/19/2 113/20/2 182/21/2 12/22/2 94/23/2
f 137/24/6 48/25/6 51/26/6 139/27/6
f 17/14/7 8/7/7 18/6/7 50/18/7
f 6/28/7 88/2/7 19/1/7 1/19/7
f 50/18/2 49/17/2 21/3/2 88/2/2
f 2/29/7 88/2/7 6/28/7 5/30/7 4/31/7 3/32/7
f 17/14/7 50/18/7 88/2/7 2/29/7
f 139/27/8 51/26/8 50/18/8 49/17/8 138/16/8
f 140/33/6 52/34/6 53/35/6 141/36/6
f 51/26/7 48/25/7 50/18/7
f 144/37/6 56/38/6 54/39/6 142/40/6
f 142/40/8 54/39/8 52/34/8 140/33/8
f 53/35/7 52/34/7 48/25/7
f 147/41/8 59/42/8 55/43/8 143/44/8
f 143/44/6 55/43/6 57/45/6 145/46/6
f 54/39/7 56/38/7 52/34/7
f 145/46/8 57/45/8 56/38/8 144/37/8
f 146/47/6 58/48/6 59/42/6 147/41/6
f 57/45/7 55/43/7 56/38/7
f 149/49/6 61/50/6 60/51/6 148/52/6
f 148/52/8 60/51/8 58/48/8 146/47/8
f 59/42/7 58/48/7 55/43/7
f 151/53/6 63/54/6 62/55/6 150/56/6
f 150/56/8 62/55/8 61/50/8 149/49/8
f 60/51/7 61/50/7 58/48/7
f 154/57/6 66/58/6 64/59/6 152/60/6
f 152/60/8 64/59/8 63/54/8 151/53/8
f 62/55/7 63/54/7 61/50/7
f 153/61/6 65/62/6 67/63/6 155/64/6
f 155/64/8 67/63/8 66/58/8 154/57/8
f 64/59/7 66/58/7 63/54/7
f 158/65/6 70/66/6 68/67/6 156/68/6
f 156/68/8 68/67/8 65/62/8 153/61/8
f 67/63/7 65/62/7 66/58/7
f 162/69/6 74/70/6 72/71/6 160/72/6
f 157/73/6 69/74/6 71/75/6 159/76/6
f 68/67/7 70/66/7 65/62/7
f 159/76/8 71/75/8 70/66/8 158/65/8
f 163/77/8 75/78/8 74/70/8 162/69/8
f 71/75/7 69/74/7 70/66/7
f 160/72/8 72/71/8 69/74/8 157/73/8
f 161/79/6 73/80/6 75/78/6 163/77/6
f 72/71/7 74/70/7 69/74/7
f 166/81/8 78/82/8 77/83/8 165/84/8
f 165/84/6 77/83/6 76/85/6 164/86/6
f 75/78/7 73/80/7 74/70/7
f 164/86/8 76/85/8 73/80/8 161/79/8
f 168/87/6 80/88/6 78/82/6 166/81/6
f 76/85/7 77/83/7 73/80/7
f 167/89/6 79/90/6 81/91/6 169/92/6
f 169/92/8 81/91/8 80/88/8 168/87/8
f 78/82/7 80/88/7 77/83/7
f 174/93/6 86/94/6 84/95/6 172/96/6
f 170/97/6 82/98/6 83/99/6 171/100/6
f 81/91/7 79/90/7 80/88/7
f 171/100/8 83/99/8 79/90/8 167/89/8
f 175/101/8 87/102/8 86/94/8 174/93/8
f 83/99/7 82/98/7 79/90/7
f 172/96/8 84/95/8 82/98/8 170/97/8
f 173/103/6 85/104/6 87/102/6 175/101/6
f 84/95/7 86/94/7 82/98/7
f 141/36/8 53/35/8 48/25/8 137/24/8
f 177/105/8 89/106/8 85/104/8 173/103/8
f 87/102/7 85/104/7 86/94/7
f 113/20/2 1/19/2 19/1/2 20/4/2 124/107/2
f 176/108/9 21/3/9 88/2/9 89/106/9 177/105/9
f 89/106/7 88/2/7 85/104/7
f 1/19/10 94/23/10 95/109/10 6/28/10
f 3/32/11 97/110/11 98/111/11 2/29/11
f 4/31/12 99/112/12 97/110/12 3/32/12
f 5/30/13 96/113/13 99/112/13 4/31/13
f 6/28/14 95/109/14 96/113/14 5/30/14
f 2/29/15 98/111/15 100/15/15 17/14/15
f 9/12/7 8/7/7 17/14/7 11/13/7
f 124/107/1 20/4/1 21/3/1 176/108/1
f 122/114/4 120/10/4 10/9/4 188/115/4
f 122/114/16 121/8/16 10/9/16 188/115/16
f 122/114/17 138/16/17 123/5/17 121/8/17
f 118/116/17 113/20/17 124/107/17 176/108/17
f 138/16/2 176/108/2 21/3/2 49/17/2
f 114/117/17 115/118/17 116/119/17 117/120/17 118/116/17 176/108/17
f 122/114/17 114/117/17 176/108/17 138/16/17
f 139/27/17 138/16/17 137/24/17
f 141/36/17 137/24/17 140/33/17
f 142/40/17 140/33/17 144/37/17
f 145/46/17 144/37/17 143/44/17
f 147/41/17 143/44/17 146/47/17
f 148/52/17 146/47/17 149/49/17
f 150/56/17 149/49/17 151/53/17
f 152/60/17 151/53/17 154/57/17
f 155/64/17 154/57/17 153/61/17
f 156/68/17 153/61/17 158/65/17
f 159/76/17 158/65/17 157/73/17
f 160/72/17 157/73/17 162/69/17
f 163/77/17 162/69/17 161/79/17
f 164/86/17 161/79/17 165/84/17
f 166/81/17 165/84/17 168/87/17
f 169/92/17 168/87/17 167/89/17
f 171/100/17 167/89/17 170/97/17
f 172/96/17 170/97/17 174/93/17
f 175/101/17 174/93/17 173/103/17
f 177/105/17 173/103/17 176/108/17
f 113/20/18 118/116/18 183/121/18 182/21/18
f 115/118/19 114/117/19 186/122/19 185/123/19
f 116/119/20 115/118/20 185/123/20 187/124/20
f 117/120/21 116/119/21 187/124/21 184/125/21
f 118/116/22 117/120/22 184/125/22 183/121/22
f 114/117/23 122/114/23 188/115/23 186/122/23
f 119/11/17 120/10/17 122/114/17 121/8/17
usemtl M_PCL_Flat_White
f 98/126/24 16/127/24 10/128/24 100/129/24
f 95/130/25 13/131/25 14/132/25 96/133/25
f 96/133/26 14/132/26 7/134/26 99/135/26
f 99/135/27 7/134/27 15/136/27 97/137/27
f 97/137/28 15/136/28 16/127/28 98/126/28
f 94/138/29 12/139/29 13/131/29 95/130/29
f 186/140/30 188/141/30 10/128/30 16/127/30
f 183/142/31 184/143/31 14/132/31 13/131/31
f 184/143/32 187/144/32 7/134/32 14/132/32
f 187/144/33 185/145/33 15/136/33 7/134/33
f 185/145/34 186/140/34 16/127/34 15/136/34
f 182/146/35 183/142/35 13/131/35 12/139/35
usemtl M_PCL_Flat_Red.Rosewood
f 47/147/7 105/148/7 40/149/7 41/150/7
f 33/151/7 36/152/7 32/153/7 29/154/7
f 43/155/36 42/156/36 24/157/36 39/158/36
f 43/155/7 45/159/7 36/152/7 33/151/7
f 90/160/7 91/161/7 92/162/7 93/163/7
f 29/154/4 32/153/4 31/164/4 126/165/4 125/166/4 30/167/4
f 34/168/37 33/151/37 29/154/37 30/167/37
f 25/169/38 40/149/38 105/148/38 23/170/38
f 42/156/39 43/155/39 33/151/39 34/168/39
f 31/164/40 32/153/40 36/152/40 35/171/40
f 38/172/7 45/159/7 43/155/7 39/158/7
f 26/173/41 41/150/41 39/158/41 24/157/41
f 37/174/42 38/172/42 40/149/42 25/169/42
f 22/175/43 47/147/43 41/150/43 26/173/43
f 111/176/44 112/177/44 108/178/44 27/179/44
f 23/170/45 105/148/45 46/180/45 28/181/45
f 27/179/46 108/178/46 47/147/46 22/175/46
f 103/182/7 105/148/7 47/147/7 102/183/7
f 35/171/47 36/152/47 45/159/47 44/184/47
f 195/185/48 189/186/48 101/187/48 107/188/48
f 198/189/49 194/190/49 106/191/49 110/192/49
f 106/191/7 108/178/7 112/177/7 46/180/7 110/192/7
f 192/193/50 197/194/50 109/195/50 104/196/50
f 109/195/7 46/180/7 105/148/7 104/196/7
f 38/172/51 37/174/51 44/184/51 45/159/51
f 41/150/52 40/149/52 91/161/52 90/160/52
f 40/149/53 38/172/53 92/162/53 91/161/53
f 38/172/54 39/158/54 93/163/54 92/162/54
f 39/158/55 41/150/55 90/160/55 93/163/55
f 101/187/7 102/183/7 47/147/7
f 103/182/7 104/196/7 105/148/7
f 106/191/7 107/188/7 108/178/7
f 109/195/7 110/192/7 46/180/7
f 106/191/56 194/190/56 195/185/56 107/188/56
f 109/195/57 197/194/57 198/189/57 110/192/57
f 191/197/58 192/193/58 104/196/58 103/182/58
f 190/198/59 191/197/59 103/182/59 102/183/59
f 101/187/7 47/147/7 108/178/7 107/188/7
f 28/181/60 46/180/60 112/177/60 111/176/60
f 136/199/17 132/200/17 131/201/17 193/202/17
f 127/203/17 125/166/17 126/165/17 128/204/17
f 133/205/61 130/206/61 24/157/61 42/156/61
f 133/205/17 127/203/17 128/204/17 134/207/17
f 178/208/17 181/209/17 180/210/17 179/211/17
f 34/168/62 30/167/62 125/166/62 127/203/62
f 25/169/63 23/170/63 193/202/63 131/201/63
f 42/156/64 34/168/64 127/203/64 133/205/64
f 31/164/65 35/171/65 128/204/65 126/165/65
f 129/212/17 130/206/17 133/205/17 134/207/17
f 26/173/66 24/157/66 130/206/66 132/200/66
f 37/174/67 25/169/67 131/201/67 129/212/67
f 22/175/68 26/173/68 132/200/68 136/199/68
f 111/176/69 27/179/69 196/213/69 199/214/69
f 23/170/70 28/181/70 135/215/70 193/202/70
f 27/179/71 22/175/71 136/199/71 196/213/71
f 191/197/17 190/198/17 136/199/17 193/202/17
f 35/171/72 44/184/72 134/207/72 128/204/72
f 194/190/17 198/189/17 135/215/17 199/214/17 196/213/17
f 197/194/17 192/193/17 193/202/17 135/215/17
f 129/212/73 134/207/73 44/184/73 37/174/73
f 132/200/74 178/208/74 179/211/74 131/201/74
f 131/201/75 179/211/75 180/210/75 129/212/75
f 129/212/76 180/210/76 181/209/76 130/206/76
f 130/206/77 181/209/77 178/208/77 132/200/77
f 189/186/17 136/199/17 190/198/17
f 191/197/17 193/202/17 192/193/17
f 194/190/17 196/213/17 195/185/17
f 197/194/17 135/215/17 198/189/17
f 189/186/17 195/185/17 196/213/17 136/199/17
f 28/181/78 111/176/78 199/214/78 135/215/78
f 189/186/79 190/198/79 102/183/79 101/187/79
