# Blender v3.0.1 OBJ File: 'Flat_Melee.blend'
# www.blender.org
mtllib Pocket Knife.mtl
o Pocket_Knife_Plane.002
v -0.001195 0.116802 0.000032
v -0.001088 0.034636 -0.013198
v -0.001088 0.058670 -0.012226
v -0.001302 0.067427 -0.011517
v -0.001231 0.083823 -0.009044
v -0.001195 0.100218 -0.005088
v -0.001088 0.030263 -0.013198
v 0.000221 0.018241 0.012866
v 0.000221 0.001845 0.012866
v 0.000221 0.001845 -0.013198
v 0.000221 0.019713 0.017398
v 0.000221 0.027555 -0.013198
v 0.000221 0.030263 -0.013198
v -0.001195 0.100218 0.009185
v -0.001231 0.083823 0.013260
v -0.001302 0.067427 0.014243
v -0.001088 0.051032 0.014738
v -0.001088 0.034636 0.015457
v -0.001088 0.020382 0.015457
v -0.002371 0.116802 0.000032
v -0.002478 0.034636 -0.013198
v -0.002478 0.058670 -0.012226
v -0.002264 0.067427 -0.011517
v -0.002335 0.083823 -0.009044
v -0.002371 0.100218 -0.005088
v -0.002478 0.030263 -0.013198
v -0.003787 0.018241 0.012866
v -0.003787 0.001845 0.012866
v -0.003787 0.001845 -0.013198
v -0.003787 0.019713 0.017398
v -0.003787 0.027555 -0.013198
v -0.003787 0.030263 -0.013198
v -0.001783 0.117805 0.000242
v -0.001783 0.100218 0.010276
v -0.001783 0.083823 0.014826
v -0.001783 0.067427 0.016013
v -0.001783 0.051032 0.016606
v -0.001783 0.034636 0.017398
v -0.002371 0.100218 0.009185
v -0.002335 0.083823 0.013260
v -0.002264 0.067427 0.014243
v -0.002478 0.051032 0.014738
v -0.002478 0.034636 0.015457
v -0.002478 0.020382 0.015457
v -0.001783 0.019713 0.017398
v 0.004224 0.003496 0.019136
v 0.004224 -0.063702 -0.008909
v 0.004224 -0.093501 -0.000178
v 0.004224 -0.090893 0.014845
v 0.004224 -0.066533 0.017092
v 0.004224 -0.050926 0.009907
v 0.004224 -0.033165 -0.010664
v 0.004224 -0.050388 -0.010664
v 0.004224 -0.018227 0.010505
v 0.004224 -0.002290 0.019136
v 0.004224 0.004630 -0.010664
v 0.004224 -0.003126 -0.010664
v 0.004224 -0.019261 -0.010664
v 0.004224 -0.033116 0.008099
v 0.004224 0.010541 0.014592
v 0.004224 0.011582 -0.009156
v 0.000981 0.005137 0.022434
v 0.000981 -0.064262 -0.012181
v 0.000981 -0.097074 -0.002568
v 0.000981 -0.093883 0.017878
v 0.000981 -0.066402 0.020416
v 0.000981 -0.050477 0.013176
v 0.000981 -0.033165 -0.013962
v 0.000981 -0.050477 -0.013962
v 0.000981 -0.019261 0.013695
v 0.000981 -0.003126 0.022434
v 0.000981 0.005137 -0.013962
v 0.000981 -0.003126 -0.013962
v 0.000981 -0.019261 -0.013962
v 0.000981 -0.033165 0.011418
v 0.000981 0.013839 0.015217
v 0.000981 0.014879 -0.010615
v -0.007862 0.003496 0.019136
v -0.007862 -0.063702 -0.008909
v -0.007862 -0.093501 -0.000178
v -0.007862 -0.090893 0.014845
v -0.007862 -0.066533 0.017092
v -0.007862 -0.050926 0.009907
v -0.007862 -0.033165 -0.010664
v -0.007862 -0.050388 -0.010664
v -0.007862 -0.018227 0.010505
v -0.007862 -0.002290 0.019136
v -0.007862 0.004630 -0.010664
v -0.007862 -0.003126 -0.010664
v -0.007862 -0.019261 -0.010664
v -0.007862 -0.033116 0.008099
v -0.007862 0.010541 0.014592
v -0.007862 0.011582 -0.009156
v -0.004619 0.005137 0.022434
v -0.004619 -0.064262 -0.012181
v -0.004619 -0.097074 -0.002568
v -0.004619 -0.093883 0.017878
v -0.004619 -0.066402 0.020416
v -0.004619 -0.050477 0.013176
v -0.004619 -0.033165 -0.013962
v -0.004619 -0.050477 -0.013962
v -0.004619 -0.019261 0.013695
v -0.004619 -0.003126 0.022434
v -0.004619 0.005137 -0.013962
v -0.004619 -0.003126 -0.013962
v -0.004619 -0.019261 -0.013962
v -0.004619 -0.033165 0.011418
v -0.004619 0.013839 0.015217
v -0.004619 0.014879 -0.010615
v -0.000796 -0.100439 0.003710
v -0.000796 -0.099198 0.012267
v -0.000796 -0.096418 0.000483
v -0.000796 -0.094327 0.014059
v -0.000796 -0.099281 0.004166
v -0.000796 -0.098221 0.011475
v -0.000796 -0.095742 0.001325
v -0.000796 -0.093954 0.013046
v -0.002842 -0.100439 0.003710
v -0.002842 -0.099198 0.012267
v -0.002842 -0.096418 0.000483
v -0.002842 -0.094327 0.014059
v -0.002842 -0.099281 0.004166
v -0.002842 -0.098221 0.011475
v -0.002842 -0.095742 0.001325
v -0.002842 -0.093954 0.013046
v -0.008621 -0.052238 -0.004987
v -0.008621 -0.048099 -0.002597
v -0.008621 -0.048099 0.002182
v -0.008621 -0.052238 0.004572
v -0.008621 -0.056377 0.002182
v -0.008621 -0.056377 -0.002597
v 0.004984 -0.052238 -0.004987
v 0.004984 -0.048099 -0.002597
v 0.004984 -0.048099 0.002182
v 0.004984 -0.052238 0.004572
v 0.004984 -0.056377 0.002182
v 0.004984 -0.056377 -0.002597
v 0.004980 0.004082 -0.001194
v 0.004980 -0.000057 -0.003584
v 0.004980 0.004082 0.003586
v 0.004980 -0.000057 0.005975
v 0.004980 -0.005030 -0.003584
v 0.004980 -0.005030 0.005975
v 0.004980 -0.009170 0.003586
v 0.004980 -0.009170 -0.001194
v 0.004224 -0.000057 -0.003584
v 0.004224 0.004082 -0.001194
v -0.002478 0.046425 -0.011102
v -0.002478 0.044060 -0.011173
v -0.002478 0.041695 -0.011244
v -0.002478 0.039330 -0.011316
v -0.002478 0.036964 -0.011387
v -0.002478 0.053520 -0.010888
v -0.002478 0.051155 -0.010959
v -0.002478 0.048790 -0.011030
v -0.001088 0.034599 -0.011459
v -0.002478 0.034599 -0.011459
v -0.001088 0.036964 -0.011387
v -0.001088 0.039330 -0.011316
v -0.001088 0.041695 -0.011244
v -0.001088 0.044060 -0.011173
v -0.001088 0.046425 -0.011102
v -0.001088 0.048790 -0.011030
v -0.001088 0.051155 -0.010959
v -0.001088 0.053520 -0.010888
v -0.001088 0.058250 -0.010745
v -0.002478 0.058250 -0.010745
v -0.001088 0.055885 -0.010816
v -0.002478 0.055885 -0.010816
v -0.002478 0.052398 -0.012491
v -0.001088 0.052398 -0.012491
v -0.002478 0.050033 -0.012562
v -0.001088 0.050033 -0.012562
v -0.002478 0.047668 -0.012634
v -0.001088 0.047668 -0.012634
v -0.002478 0.045303 -0.012705
v -0.001088 0.045303 -0.012705
v -0.002478 0.042938 -0.012776
v -0.001088 0.042938 -0.012776
v -0.002478 0.040573 -0.012848
v -0.001088 0.040573 -0.012848
v -0.002478 0.038208 -0.012919
v -0.001088 0.038208 -0.012919
v -0.002478 0.054763 -0.012420
v -0.001088 0.054763 -0.012420
v -0.002478 0.035842 -0.012990
v -0.001088 0.035842 -0.012990
v -0.002478 0.057128 -0.012348
v -0.001088 0.057128 -0.012348
v 0.005386 -0.000931 -0.003290
v 0.005386 -0.000931 0.005682
v 0.005291 -0.001386 -0.003290
v 0.005291 -0.001386 0.005682
v 0.005253 -0.001842 -0.003290
v 0.005253 -0.001842 0.005682
v 0.005253 -0.002297 -0.003290
v 0.005253 -0.002297 0.005682
v 0.005253 -0.002753 -0.003290
v 0.005253 -0.002753 0.005682
v 0.005253 -0.003208 -0.003290
v 0.005253 -0.003208 0.005682
v 0.005291 -0.003664 -0.003290
v 0.005291 -0.003664 0.005682
v 0.005386 -0.004119 -0.003290
v 0.005386 -0.004119 0.005682
v 0.005512 -0.004575 -0.003290
v 0.005512 -0.004575 0.005682
v 0.005639 -0.005030 -0.003290
v 0.005639 -0.005030 0.005682
v 0.005629 -0.000057 -0.003290
v 0.005629 -0.000057 0.005682
v 0.005501 -0.000512 -0.003290
v 0.005501 -0.000512 0.005682
v 0.004224 -0.009170 -0.001194
v 0.004224 -0.009170 0.003586
v 0.004224 -0.005030 0.005975
v 0.004224 -0.005030 -0.003584
v 0.004224 -0.000057 0.005975
v 0.004224 0.004082 0.003586
v 0.004980 -0.000931 -0.003290
v 0.004980 -0.000931 0.005682
v 0.004980 -0.001386 -0.003290
v 0.004980 -0.001386 0.005682
v 0.004980 -0.001842 -0.003290
v 0.004980 -0.001842 0.005682
v 0.004980 -0.002297 -0.003290
v 0.004980 -0.002297 0.005682
v 0.004980 -0.002753 -0.003290
v 0.004980 -0.002753 0.005682
v 0.004980 -0.003208 -0.003290
v 0.004980 -0.003208 0.005682
v 0.004980 -0.003664 -0.003290
v 0.004980 -0.003664 0.005682
v 0.004980 -0.004119 -0.003290
v 0.004980 -0.004119 0.005682
v 0.004980 -0.004575 -0.003290
v 0.004980 -0.004575 0.005682
v 0.004980 -0.005030 -0.003290
v 0.004980 -0.005030 0.005682
v 0.004980 -0.000057 -0.003290
v 0.004980 -0.000057 0.005682
v 0.004980 -0.000512 -0.003290
v 0.004980 -0.000512 0.005682
vt 0.070946 0.928816
vt 0.070946 0.928816
vt 0.070946 0.928816
vt 0.070946 0.928816
vt 0.070946 0.928816
vt 0.070946 0.928816
vt 0.070946 0.928816
vt 0.070946 0.928816
vt 0.070946 0.928816
vt 0.070946 0.928816
vt 0.070946 0.928816
vt 0.070946 0.928816
vt 0.070946 0.928816
vt 0.070946 0.928816
vt 0.070946 0.928816
vt 0.070946 0.928816
vt 0.070946 0.928816
vt 0.070946 0.928816
vt 0.070946 0.928816
vt 0.070946 0.928816
vt 0.070946 0.928816
vt 0.070946 0.928816
vt 0.070946 0.928816
vt 0.070946 0.928816
vt 0.070946 0.928816
vt 0.070946 0.928816
vt 0.070946 0.928816
vt 0.070946 0.928816
vt 0.070946 0.928816
vt 0.070946 0.928816
vt 0.070946 0.928816
vt 0.070946 0.928816
vt 0.070946 0.928816
vt 0.070946 0.928816
vt 0.070946 0.928816
vt 0.070946 0.928816
vt 0.070946 0.928816
vt 0.070946 0.928816
vt 0.070946 0.928816
vt 0.070946 0.928816
vt 0.070946 0.928816
vt 0.070946 0.928816
vt 0.070946 0.928816
vt 0.070946 0.928816
vt 0.070946 0.928816
vt 0.070946 0.928816
vt 0.070946 0.928816
vt 0.070946 0.928816
vt 0.070946 0.928816
vt 0.070946 0.928816
vt 0.070946 0.928816
vt 0.070946 0.928816
vt 0.070946 0.928816
vt 0.070946 0.928816
vt 0.070946 0.928816
vt 0.070946 0.928816
vt 0.070946 0.928816
vt 0.070946 0.928816
vt 0.070946 0.928816
vt 0.070946 0.928816
vt 0.070946 0.928816
vt 0.070946 0.928816
vt 0.070946 0.928816
vt 0.070946 0.928816
vt 0.070946 0.928816
vt 0.070946 0.928816
vt 0.070946 0.928816
vt 0.070946 0.928816
vt 0.070946 0.928816
vt 0.070946 0.928816
vt 0.070946 0.928816
vt 0.070946 0.928816
vt 0.070946 0.928816
vt 0.070946 0.928816
vt 0.070946 0.928816
vt 0.070946 0.928816
vt 0.312732 0.929802
vt 0.312732 0.929802
vt 0.312732 0.929802
vt 0.312732 0.929802
vt 0.312732 0.929802
vt 0.312732 0.929802
vt 0.312732 0.929802
vt 0.312732 0.929802
vt 0.312732 0.929802
vt 0.312732 0.929802
vt 0.312732 0.929802
vt 0.312732 0.929802
vt 0.312732 0.929802
vt 0.312732 0.929802
vt 0.312732 0.929802
vt 0.312732 0.929802
vt 0.312732 0.929802
vt 0.312732 0.929802
vt 0.312732 0.929802
vt 0.312732 0.929802
vt 0.312732 0.929802
vt 0.312732 0.929802
vt 0.312732 0.929802
vt 0.312732 0.929802
vt 0.312732 0.929802
vt 0.312732 0.929802
vt 0.312732 0.929802
vt 0.312732 0.929802
vt 0.312732 0.929802
vt 0.312732 0.929802
vt 0.312732 0.929802
vt 0.312732 0.929802
vt 0.312732 0.929802
vt 0.312732 0.929802
vt 0.312732 0.929802
vt 0.312732 0.929802
vt 0.312732 0.929802
vt 0.312732 0.929802
vt 0.312732 0.929802
vt 0.312732 0.929802
vt 0.312732 0.929802
vt 0.312732 0.929802
vt 0.312732 0.929802
vt 0.312732 0.929802
vt 0.312732 0.929802
vt 0.312732 0.929802
vt 0.312732 0.929802
vt 0.312732 0.929802
vt 0.312732 0.929802
vt 0.312732 0.929802
vt 0.312732 0.929802
vt 0.312732 0.929802
vt 0.312732 0.929802
vt 0.312732 0.929802
vt 0.312732 0.929802
vt 0.312732 0.929802
vt 0.312732 0.929802
vt 0.312732 0.929802
vt 0.312732 0.929802
vt 0.312732 0.929802
vt 0.312732 0.929802
vt 0.312732 0.929802
vt 0.312732 0.929802
vt 0.312732 0.929802
vt 0.312732 0.929802
vt 0.312732 0.929802
vt 0.312732 0.929802
vt 0.312732 0.929802
vt 0.312732 0.929802
vt 0.312732 0.929802
vt 0.312732 0.929802
vt 0.312732 0.929802
vt 0.312732 0.929802
vt 0.312732 0.929802
vt 0.312732 0.929802
vt 0.312732 0.929802
vt 0.312732 0.929802
vt 0.312732 0.929802
vt 0.312732 0.929802
vt 0.312732 0.929802
vt 0.312732 0.929802
vt 0.312732 0.929802
vt 0.312732 0.929802
vt 0.312732 0.929802
vt 0.312732 0.929802
vt 0.312732 0.929802
vt 0.312732 0.929802
vt 0.312732 0.929802
vt 0.312732 0.929802
vt 0.312732 0.929802
vt 0.312732 0.929802
vt 0.312732 0.929802
vt 0.312732 0.929802
vt 0.312732 0.929802
vt 0.312732 0.929802
vt 0.312732 0.929802
vt 0.312732 0.929802
vt 0.312732 0.929802
vt 0.927083 0.922518
vt 0.927083 0.922518
vt 0.927083 0.922518
vt 0.927083 0.922518
vt 0.927083 0.922518
vt 0.927083 0.922518
vt 0.927083 0.922518
vt 0.927083 0.922518
vt 0.927083 0.922518
vt 0.927083 0.922518
vt 0.927083 0.922518
vt 0.927083 0.922518
vt 0.927083 0.922518
vt 0.927083 0.922518
vt 0.927083 0.922518
vt 0.927083 0.922518
vt 0.927083 0.922518
vt 0.927083 0.922518
vt 0.927083 0.922518
vt 0.927083 0.922518
vt 0.927083 0.922518
vt 0.805631 0.298948
vt 0.805631 0.298948
vt 0.805631 0.298948
vt 0.805631 0.298948
vt 0.805631 0.298948
vt 0.805631 0.298948
vt 0.805631 0.298948
vt 0.805631 0.298948
vt 0.805631 0.298948
vt 0.805631 0.298948
vt 0.805631 0.298948
vt 0.805631 0.298948
vt 0.805631 0.298948
vt 0.805631 0.298948
vt 0.805631 0.298948
vt 0.805631 0.298948
vt 0.805631 0.298948
vt 0.805631 0.298948
vt 0.805631 0.298948
vt 0.805631 0.298948
vt 0.805631 0.298948
vt 0.805631 0.298948
vt 0.805631 0.298948
vt 0.805631 0.298948
vt 0.805631 0.298948
vt 0.805631 0.298948
vt 0.805631 0.298948
vt 0.805631 0.298948
vt 0.805631 0.298948
vt 0.805631 0.298948
vt 0.805631 0.298948
vt 0.805631 0.298948
vt 0.805631 0.298948
vt 0.805631 0.298948
vt 0.805631 0.298948
vt 0.805631 0.298948
vt 0.805631 0.298948
vt 0.805631 0.298948
vt 0.805631 0.298948
vt 0.805631 0.298948
vt 0.805631 0.298948
vt 0.805631 0.298948
vt 0.805631 0.298948
vt 0.805631 0.298948
vt 0.805631 0.298948
vt 0.805631 0.298948
vt 0.805631 0.298948
vt 0.805631 0.298948
vt 0.805631 0.298948
vt 0.805631 0.298948
vt 0.805631 0.298948
vt 0.805631 0.298948
vt 0.805631 0.298948
vt 0.805631 0.298948
vt 0.805631 0.298948
vt 0.805631 0.298948
vt 0.805631 0.298948
vt 0.805631 0.298948
vt 0.805631 0.298948
vt 0.805631 0.298948
vt 0.805631 0.298948
vt 0.805631 0.298948
vt 0.805631 0.298948
vt 0.805631 0.298948
vn 0.0000 -1.0000 0.0000
vn 0.0000 0.5000 0.8660
vn 0.0000 0.5000 -0.8660
vn 0.0000 -0.5000 -0.8660
vn 0.0000 -0.5000 0.8660
vn 0.0000 1.0000 -0.0000
vn 1.0000 -0.0000 0.0000
vn -1.0000 0.0000 -0.0000
vn 0.9788 -0.2048 0.0000
vn 0.9788 0.2048 0.0000
vn 0.9629 0.2699 0.0000
vn 0.0000 -0.0000 1.0000
vn 0.9624 -0.2715 0.0000
vn 0.0000 0.0000 -1.0000
vn -0.0003 -1.0000 0.0000
vn -0.0002 -1.0000 0.0000
vn 0.0003 1.0000 0.0000
vn 0.0001 1.0000 0.0000
vn 0.0002 1.0000 0.0000
vn -0.0001 -1.0000 0.0000
vn 0.0000 0.9454 0.3260
vn 0.0000 0.0808 -0.9967
vn 1.0000 -0.0022 0.0000
vn 0.0000 0.1491 -0.9888
vn 1.0000 -0.0043 0.0000
vn 0.0000 0.2346 -0.9721
vn 0.9999 0.0170 0.0025
vn 0.0000 0.9998 0.0212
vn 0.0000 -0.9511 0.3090
vn -1.0000 -0.0022 0.0000
vn -1.0000 -0.0043 0.0000
vn -0.9999 0.0170 0.0025
vn 0.0000 -0.6259 -0.7799
vn 0.0000 -0.3454 0.9385
vn 0.0000 0.9896 -0.1435
vn 0.0000 0.6259 0.7799
vn 0.0000 0.3454 -0.9385
vn 0.0000 -0.9896 0.1435
vn 0.0000 0.0301 -0.9995
vn 0.0000 -0.9621 -0.2726
vn 0.0000 0.8193 -0.5734
vn 0.0000 -0.7765 -0.6301
vn 0.0000 0.2051 -0.9787
vn 0.0000 0.2950 -0.9555
vn 0.8102 0.2870 0.5111
vn 0.9142 0.1021 0.3922
vn 0.9551 0.0175 0.2957
vn 0.9514 0.0164 0.3076
vn 0.9392 0.0158 0.3429
vn 0.9414 0.0000 0.3374
vn -0.8102 0.2870 0.5111
vn -0.9142 0.1021 0.3922
vn -0.9551 0.0175 0.2957
vn -0.9514 0.0164 0.3076
vn -0.9392 0.0158 0.3429
vn -0.9414 0.0000 0.3374
vn 0.0000 0.6384 0.7697
vn 0.0000 -0.1281 -0.9918
vn 0.0000 0.4139 0.9103
vn 0.0000 -0.0920 0.9958
vn 0.0000 -0.4762 0.8793
vn 0.0000 0.9992 0.0402
vn 0.0000 -0.1616 0.9869
vn 0.0000 0.3249 -0.9457
vn 0.6849 0.4360 0.5838
vn 0.0000 -0.9880 0.1542
vn 0.0000 0.1010 0.9949
vn 0.6555 0.2109 -0.7252
vn 0.7129 -0.1972 -0.6729
vn 0.7122 -0.6927 0.1133
vn 0.6931 0.2999 0.6555
vn 0.7129 0.0000 -0.7012
vn 0.7129 -0.3339 0.6166
vn 0.7129 -0.0000 0.7012
vn 0.7132 -0.1126 0.6919
vn 0.7129 0.0709 0.6976
vn 0.7131 -0.0907 -0.6951
vn 0.7128 -0.0645 0.6984
vn 0.7108 0.7028 0.0295
vn -0.6849 0.4360 0.5838
vn -0.6555 0.2109 -0.7252
vn -0.7129 -0.1972 -0.6729
vn -0.7122 -0.6927 0.1133
vn -0.6931 0.2999 0.6555
vn -0.7129 0.0000 -0.7012
vn -0.7129 -0.3339 0.6166
vn -0.7129 0.0000 0.7012
vn -0.7132 -0.1126 0.6919
vn -0.7129 0.0709 0.6976
vn -0.7131 -0.0907 -0.6951
vn -0.7128 -0.0645 0.6984
vn -0.7108 0.7028 0.0295
vn 0.0000 -0.2812 -0.9597
usemtl M_PCL_Flat_Black
s off
f 131/1/1 137/2/1 136/3/1 130/4/1
f 129/5/2 135/6/2 134/7/2 128/8/2
f 127/9/3 133/10/3 132/11/3 126/12/3
f 126/12/4 132/11/4 137/2/4 131/1/4
f 130/4/5 136/3/5 135/6/5 129/5/5
f 128/8/6 134/7/6 133/10/6 127/9/6
f 133/10/7 134/7/7 135/6/7 136/3/7 137/2/7 132/11/7
f 127/9/8 126/12/8 131/1/8 130/4/8 129/5/8 128/8/8
f 145/13/7 142/14/7 143/15/7 144/16/7
f 142/14/7 139/17/7 141/18/7 143/15/7
f 140/19/7 141/18/7 139/17/7 138/20/7
f 192/21/9 190/22/9 191/23/9 193/24/9
f 196/25/7 194/26/7 195/27/7 197/28/7
f 200/29/7 198/30/7 199/31/7 201/32/7
f 204/33/10 202/34/10 203/35/10 205/36/10
f 140/19/2 219/37/2 218/38/2 141/18/2
f 208/39/11 206/40/11 207/41/11 209/42/11
f 138/20/6 147/43/6 219/37/6 140/19/6
f 141/18/12 218/38/12 216/44/12 143/15/12
f 145/13/4 214/45/4 217/46/4 142/14/4
f 143/15/5 216/44/5 215/47/5 144/16/5
f 212/48/13 210/49/13 211/50/13 213/51/13
f 142/14/14 217/46/14 146/52/14 139/17/14
f 139/17/3 146/52/3 147/43/3 138/20/3
f 144/16/1 215/47/1 214/45/1 145/13/1
f 212/48/14 242/53/14 240/54/14 210/49/14
f 203/35/12 233/55/12 235/56/12 205/36/12
f 197/28/15 227/57/15 226/58/15 196/25/15
f 211/50/12 241/59/12 243/60/12 213/51/12
f 205/36/16 235/56/16 234/61/16 204/33/16
f 194/26/17 224/62/17 225/63/17 195/27/17
f 213/51/16 243/60/16 242/53/16 212/48/16
f 192/21/14 222/64/14 220/65/14 190/22/14
f 202/34/17 232/66/17 233/55/17 203/35/17
f 200/29/14 230/67/14 228/68/14 198/30/14
f 210/49/18 240/54/18 241/59/18 211/50/18
f 191/23/12 221/69/12 223/70/12 193/24/12
f 208/39/14 238/71/14 236/72/14 206/40/14
f 199/31/12 229/73/12 231/74/12 201/32/12
f 193/24/15 223/70/15 222/64/15 192/21/15
f 207/41/12 237/75/12 239/76/12 209/42/12
f 201/32/15 231/74/15 230/67/15 200/29/15
f 190/22/19 220/65/19 221/69/19 191/23/19
f 209/42/20 239/76/20 238/71/20 208/39/20
f 198/30/17 228/68/17 229/73/17 199/31/17
f 196/25/14 226/58/14 224/62/14 194/26/14
f 206/40/19 236/72/19 237/75/19 207/41/19
f 204/33/14 234/61/14 232/66/14 202/34/14
f 195/27/12 225/63/12 227/57/12 197/28/12
usemtl M_PCL_Flat_Grey_Darker
f 18/77/7 19/78/7 7/79/7 2/80/7 156/81/7
f 8/82/7 9/83/7 10/84/7 12/85/7
f 13/86/21 7/79/21 19/78/21 11/87/21
f 11/87/21 19/78/21 45/88/21
f 22/89/22 23/90/22 4/91/22 3/92/22
f 12/85/14 31/93/14 32/94/14 26/95/14 7/79/14 13/86/14
f 14/96/23 15/97/23 5/98/23 6/99/23
f 23/90/24 24/100/24 5/98/24 4/91/24
f 15/97/25 16/101/25 4/91/25 5/98/25
f 24/100/26 25/102/26 6/99/26 5/98/26
f 16/101/27 17/103/27 166/104/27 3/92/27 4/91/27
f 1/105/7 14/96/7 6/99/7
f 9/83/1 28/106/1 29/107/1 10/84/1
f 11/87/7 8/82/7 12/85/7 13/86/7
f 10/84/14 29/107/14 31/93/14 12/85/14
f 43/108/8 157/109/8 21/110/8 26/95/8 44/111/8
f 27/112/8 31/93/8 29/107/8 28/106/8
f 27/112/12 28/106/12 9/83/12 8/82/12
f 2/80/28 21/110/28 157/109/28 156/81/28
f 26/95/14 21/110/14 2/80/14 7/79/14
f 8/82/29 11/87/29 45/88/29 30/113/29 27/112/29
f 32/94/21 30/113/21 44/111/21 26/95/21
f 30/113/21 45/88/21 44/111/21
f 39/114/30 25/102/30 24/100/30 40/115/30
f 40/115/31 24/100/31 23/90/31 41/116/31
f 41/116/32 23/90/32 22/89/32 167/117/32 42/118/32
f 20/119/8 25/102/8 39/114/8
f 30/113/8 32/94/8 31/93/8 27/112/8
f 111/120/7 110/121/7 114/122/7 115/123/7
f 110/121/7 112/124/7 116/125/7 114/122/7
f 113/126/7 111/120/7 115/123/7 117/127/7
f 110/121/33 118/128/33 120/129/33 112/124/33
f 111/120/34 113/126/34 121/130/34 119/131/34
f 115/123/35 114/122/35 122/132/35 123/133/35
f 114/122/36 116/125/36 124/134/36 122/132/36
f 117/127/37 115/123/37 123/133/37 125/135/37
f 119/131/8 123/133/8 122/132/8 118/128/8
f 118/128/8 122/132/8 124/134/8 120/129/8
f 121/130/8 125/135/8 123/133/8 119/131/8
f 110/121/38 111/120/38 119/131/38 118/128/38
f 157/109/39 167/117/39 166/104/39 156/81/39
f 3/92/40 166/104/40 167/117/40 22/89/40
f 17/103/7 18/77/7 156/81/7 166/104/7
f 42/118/8 167/117/8 157/109/8 43/108/8
f 153/136/8 170/137/8 154/138/8
f 165/139/41 171/140/41 170/137/41 153/136/41
f 164/141/7 171/140/7 165/139/7
f 154/138/42 170/137/42 171/140/42 164/141/42
f 154/138/8 172/142/8 155/143/8
f 164/141/41 173/144/41 172/142/41 154/138/41
f 163/145/7 173/144/7 164/141/7
f 155/143/42 172/142/42 173/144/42 163/145/42
f 155/143/8 174/146/8 148/147/8
f 163/145/41 175/148/41 174/146/41 155/143/41
f 162/149/7 175/148/7 163/145/7
f 148/147/42 174/146/42 175/148/42 162/149/42
f 148/147/8 176/150/8 149/151/8
f 162/149/41 177/152/41 176/150/41 148/147/41
f 161/153/7 177/152/7 162/149/7
f 149/151/42 176/150/42 177/152/42 161/153/42
f 149/151/8 178/154/8 150/155/8
f 161/153/41 179/156/41 178/154/41 149/151/41
f 160/157/7 179/156/7 161/153/7
f 150/155/42 178/154/42 179/156/42 160/157/42
f 150/155/8 180/158/8 151/159/8
f 160/157/41 181/160/41 180/158/41 150/155/41
f 159/161/7 181/160/7 160/157/7
f 151/159/42 180/158/42 181/160/42 159/161/42
f 151/159/8 182/162/8 152/163/8
f 159/161/41 183/164/41 182/162/41 151/159/41
f 158/165/7 183/164/7 159/161/7
f 152/163/42 182/162/42 183/164/42 158/165/42
f 169/166/8 184/167/8 153/136/8
f 168/168/41 185/169/41 184/167/41 169/166/41
f 165/139/7 185/169/7 168/168/7
f 153/136/42 184/167/42 185/169/42 165/139/42
f 152/163/8 186/170/8 157/109/8
f 158/165/41 187/171/41 186/170/41 152/163/41
f 156/81/7 187/171/7 158/165/7
f 157/109/42 186/170/42 187/171/42 156/81/42
f 167/117/8 188/172/8 169/166/8
f 166/104/41 189/173/41 188/172/41 167/117/41
f 168/168/7 189/173/7 166/104/7
f 169/166/42 188/172/42 189/173/42 168/168/42
f 20/119/43 33/174/43 1/105/43
f 25/102/44 20/119/44 1/105/44 6/99/44
usemtl M_PCL_Flat_White
f 33/175/45 34/176/45 14/177/45 1/178/45
f 34/176/46 35/179/46 15/180/46 14/177/46
f 35/179/47 36/181/47 16/182/47 15/180/47
f 36/181/48 37/183/48 17/184/48 16/182/48
f 37/183/49 38/185/49 18/186/49 17/184/49
f 38/185/50 45/187/50 19/188/50 18/186/50
f 33/175/51 20/189/51 39/190/51 34/176/51
f 34/176/52 39/190/52 40/191/52 35/179/52
f 35/179/53 40/191/53 41/192/53 36/181/53
f 36/181/54 41/192/54 42/193/54 37/183/54
f 37/183/55 42/193/55 43/194/55 38/185/55
f 38/185/56 43/194/56 44/195/56 45/187/56
usemtl M_PCL_Flat_Green_Lighter
f 50/196/7 49/197/7 48/198/7 47/199/7
f 59/200/7 51/201/7 53/202/7 52/203/7
f 46/204/7 55/205/7 57/206/7 56/207/7
f 76/208/57 108/209/57 94/210/57 62/211/57
f 55/205/7 54/212/7 58/213/7 57/206/7
f 54/212/7 59/200/7 52/203/7 58/213/7
f 51/201/7 50/196/7 47/199/7 53/202/7
f 63/214/58 95/215/58 101/216/58 69/217/58
f 74/218/14 106/219/14 105/220/14 73/221/14
f 67/222/59 99/223/59 98/224/59 66/225/59
f 69/217/14 101/216/14 100/226/14 68/227/14
f 66/225/60 98/224/60 97/228/60 65/229/60
f 71/230/61 103/231/61 102/232/61 70/233/61
f 77/234/62 109/235/62 108/209/62 76/208/62
f 70/233/63 102/232/63 107/236/63 75/237/63
f 68/227/14 100/226/14 106/219/14 74/218/14
f 73/221/14 105/220/14 104/238/14 72/239/14
f 72/239/64 104/238/64 109/235/64 77/234/64
f 46/204/65 60/240/65 76/208/65 62/211/65
f 62/211/12 94/210/12 103/231/12 71/230/12
f 65/229/66 97/228/66 96/241/66 64/242/66
f 75/237/67 107/236/67 99/223/67 67/222/67
f 61/243/68 56/207/68 72/239/68 77/234/68
f 47/199/69 48/198/69 64/242/69 63/214/69
f 48/198/70 49/197/70 65/229/70 64/242/70
f 50/196/71 51/201/71 67/222/71 66/225/71
f 52/203/72 53/202/72 69/217/72 68/227/72
f 54/212/73 55/205/73 71/230/73 70/233/73
f 56/207/72 57/206/72 73/221/72 72/239/72
f 55/205/74 46/204/74 62/211/74 71/230/74
f 57/206/72 58/213/72 74/218/72 73/221/72
f 59/200/75 54/212/75 70/233/75 75/237/75
f 58/213/72 52/203/72 68/227/72 74/218/72
f 51/201/76 59/200/76 75/237/76 67/222/76
f 53/202/77 47/199/77 63/214/77 69/217/77
f 49/197/78 50/196/78 66/225/78 65/229/78
f 60/240/79 61/243/79 77/234/79 76/208/79
f 56/207/7 61/243/7 60/240/7 46/204/7
f 82/244/8 79/245/8 80/246/8 81/247/8
f 91/248/8 84/249/8 85/250/8 83/251/8
f 78/252/8 88/253/8 89/254/8 87/255/8
f 87/255/8 89/254/8 90/256/8 86/257/8
f 86/257/8 90/256/8 84/249/8 91/248/8
f 83/251/8 85/250/8 79/245/8 82/244/8
f 78/252/80 94/210/80 108/209/80 92/258/80
f 93/259/81 109/235/81 104/238/81 88/253/81
f 79/245/82 95/215/82 96/241/82 80/246/82
f 80/246/83 96/241/83 97/228/83 81/247/83
f 82/244/84 98/224/84 99/223/84 83/251/84
f 84/249/85 100/226/85 101/216/85 85/250/85
f 86/257/86 102/232/86 103/231/86 87/255/86
f 88/253/85 104/238/85 105/220/85 89/254/85
f 87/255/87 103/231/87 94/210/87 78/252/87
f 89/254/85 105/220/85 106/219/85 90/256/85
f 91/248/88 107/236/88 102/232/88 86/257/88
f 90/256/85 106/219/85 100/226/85 84/249/85
f 83/251/89 99/223/89 107/236/89 91/248/89
f 85/250/90 101/216/90 95/215/90 79/245/90
f 81/247/91 97/228/91 98/224/91 82/244/91
f 92/258/92 108/209/92 109/235/92 93/259/92
f 88/253/8 78/252/8 92/258/8 93/259/8
f 64/242/93 96/241/93 95/215/93 63/214/93
