# Blender v3.0.1 OBJ File: 'Flat_Melee.blend'
# www.blender.org
mtllib Sickle.mtl
o Sickle_Plane.003
v 0.008738 -0.207886 -0.011379
v 0.008738 -0.061850 -0.011379
v 0.013640 -0.207886 0.005757
v 0.013640 -0.061850 0.005757
v 0.008738 -0.207886 0.022893
v 0.008738 -0.061850 0.022893
v 0.008427 -0.217492 -0.008119
v 0.012333 -0.217492 0.005537
v 0.008427 -0.217492 0.019194
v 0.008502 -0.108404 -0.008740
v 0.012649 -0.108404 0.005757
v 0.008502 -0.108404 0.020255
v 0.008502 -0.088041 -0.008740
v 0.012649 -0.088041 0.005757
v 0.008502 -0.088041 0.020255
v 0.008738 -0.074274 -0.011379
v 0.013640 -0.074274 0.005757
v 0.008738 -0.074274 0.022893
v 0.008563 -0.059237 -0.009418
v 0.012904 -0.059237 0.005757
v 0.008563 -0.059237 0.020932
v 0.004389 0.002215 0.018965
v 0.004389 -0.033474 -0.007773
v 0.004389 0.012729 -0.004118
v 0.004389 0.014246 -0.072728
v 0.004389 0.043845 -0.040873
v 0.004389 0.173322 -0.094478
v 0.004389 0.159969 -0.056919
v 0.004389 0.093748 -0.099908
v 0.004389 0.100982 -0.062676
v 0.004389 0.245944 -0.041767
v 0.004389 0.212466 -0.019756
v 0.004389 0.279163 0.032018
v 0.004389 0.237498 0.039599
v 0.004389 0.271634 0.096420
v 0.004389 0.232559 0.082155
v 0.004389 0.214696 0.116293
v 0.004389 -0.061599 0.018965
v 0.004389 -0.061599 -0.007773
v 0.000000 -0.037203 -0.007773
v -0.000000 0.005710 0.018965
v 0.000000 0.015892 -0.003330
v 0.000000 0.210026 -0.018152
v -0.000000 0.210723 0.119526
v 0.000000 0.093189 -0.102785
v -0.000000 -0.207886 -0.014791
v -0.000000 -0.061850 -0.014791
v -0.008738 -0.207886 -0.011379
v -0.008738 -0.061850 -0.011379
v -0.013640 -0.207886 0.005757
v -0.013640 -0.061850 0.005757
v -0.008738 -0.207886 0.022893
v -0.008738 -0.061850 0.022893
v -0.000000 -0.207886 0.026296
v -0.000000 -0.061850 0.026296
v -0.000000 -0.217492 -0.010806
v -0.008427 -0.217492 -0.008119
v -0.012333 -0.217492 0.005537
v -0.008427 -0.217492 0.019194
v -0.000000 -0.217492 0.021938
v -0.000000 -0.108404 -0.011628
v -0.008502 -0.108404 -0.008740
v -0.012649 -0.108404 0.005757
v -0.008502 -0.108404 0.020255
v -0.000000 -0.108404 0.023133
v -0.000000 -0.088041 -0.011628
v -0.008502 -0.088041 -0.008740
v -0.012649 -0.088041 0.005757
v -0.008502 -0.088041 0.020255
v -0.000000 -0.088041 0.023133
v -0.000000 -0.074274 -0.014791
v -0.008738 -0.074274 -0.011379
v -0.013640 -0.074274 0.005757
v -0.008738 -0.074274 0.022893
v -0.000000 -0.074274 0.026296
v -0.000000 -0.059237 -0.012441
v -0.008563 -0.059237 -0.009418
v -0.012904 -0.059237 0.005757
v -0.008563 -0.059237 0.020932
v -0.000000 -0.059237 0.023945
v -0.004389 0.002215 0.018965
v -0.004389 -0.033474 -0.007773
v -0.004389 0.012729 -0.004118
v 0.000000 0.012097 -0.075041
v -0.004389 0.014246 -0.072728
v -0.004389 0.043845 -0.040873
v 0.000000 0.045870 -0.038694
v 0.000000 0.174313 -0.097268
v -0.004389 0.173322 -0.094478
v 0.000000 0.159025 -0.054266
v -0.004389 0.159969 -0.056919
v -0.004389 0.093748 -0.099908
v -0.004389 0.100982 -0.062676
v 0.000000 0.101522 -0.059899
v -0.004389 0.245944 -0.041767
v 0.000000 0.248495 -0.043445
v -0.004389 0.212466 -0.019756
v -0.000000 0.282239 0.031459
v -0.004389 0.279163 0.032018
v -0.004389 0.237498 0.039599
v -0.000000 0.234601 0.040126
v -0.000000 0.274085 0.098189
v -0.004389 0.271634 0.096420
v -0.004389 0.232559 0.082155
v -0.000000 0.230198 0.080451
v -0.004389 0.214696 0.116293
v -0.004389 -0.061599 0.018965
v -0.004389 -0.061599 -0.007773
vt 0.575627 0.938218
vt 0.575627 0.938218
vt 0.575627 0.938218
vt 0.575627 0.938218
vt 0.575627 0.938218
vt 0.575627 0.938218
vt 0.575627 0.938218
vt 0.575627 0.938218
vt 0.575627 0.938218
vt 0.575627 0.938218
vt 0.575627 0.938218
vt 0.575627 0.938218
vt 0.575627 0.938218
vt 0.575627 0.938218
vt 0.575627 0.938218
vt 0.575627 0.938218
vt 0.575627 0.938218
vt 0.575627 0.938218
vt 0.575627 0.938218
vt 0.575627 0.938218
vt 0.575627 0.938218
vt 0.575627 0.938218
vt 0.575627 0.938218
vt 0.575627 0.938218
vt 0.575627 0.938218
vt 0.575627 0.938218
vt 0.575627 0.938218
vt 0.575627 0.938218
vt 0.575627 0.938218
vt 0.575627 0.938218
vt 0.575627 0.938218
vt 0.575627 0.938218
vt 0.575627 0.938218
vt 0.575627 0.938218
vt 0.575627 0.938218
vt 0.575627 0.938218
vt 0.575627 0.938218
vt 0.575627 0.938218
vt 0.575627 0.938218
vt 0.575627 0.938218
vt 0.575627 0.938218
vt 0.575627 0.938218
vt 0.575627 0.938218
vt 0.575627 0.938218
vt 0.575627 0.938218
vt 0.935273 0.938218
vt 0.935273 0.938218
vt 0.935273 0.938218
vt 0.935273 0.938218
vt 0.935273 0.938218
vt 0.935273 0.938218
vt 0.935273 0.938218
vt 0.935273 0.938218
vt 0.935273 0.938218
vt 0.935273 0.938218
vt 0.935273 0.938218
vt 0.935273 0.938218
vt 0.935273 0.938218
vt 0.935273 0.938218
vt 0.935273 0.938218
vt 0.935273 0.938218
vt 0.935273 0.938218
vt 0.935273 0.938218
vt 0.935273 0.938218
vt 0.935273 0.938218
vt 0.935273 0.938218
vt 0.935273 0.938218
vt 0.935273 0.938218
vt 0.935273 0.938218
vt 0.935273 0.938218
vt 0.935273 0.938218
vt 0.935273 0.938218
vt 0.557025 0.563070
vt 0.557025 0.563070
vt 0.557025 0.563070
vt 0.557025 0.563070
vt 0.557025 0.563070
vt 0.557025 0.563070
vt 0.557025 0.563070
vt 0.557025 0.563070
vt 0.557025 0.563070
vt 0.557025 0.563070
vt 0.557025 0.563070
vt 0.557025 0.563070
vt 0.557025 0.563070
vt 0.557025 0.563070
vt 0.557025 0.563070
vt 0.557025 0.563070
vt 0.557025 0.563070
vt 0.557025 0.563070
vt 0.557025 0.563070
vt 0.557025 0.563070
vt 0.557025 0.563070
vt 0.557025 0.563070
vt 0.557025 0.563070
vt 0.557025 0.563070
vt 0.557025 0.563070
vt 0.557025 0.563070
vt 0.557025 0.563070
vt 0.557025 0.563070
vt 0.557025 0.563070
vt 0.557025 0.563070
vt 0.557025 0.563070
vt 0.557025 0.563070
vt 0.557025 0.563070
vt 0.557025 0.563070
vt 0.557025 0.563070
vt 0.557025 0.563070
vt 0.557025 0.563070
vt 0.557025 0.563070
vt 0.557025 0.563070
vt 0.557025 0.563070
vt 0.557025 0.563070
vt 0.557025 0.563070
vt 0.557025 0.563070
vt 0.557025 0.563070
vt 0.557025 0.563070
vt 0.557025 0.563070
vt 0.557025 0.563070
vt 0.557025 0.563070
vt 0.557025 0.563070
vt 0.557025 0.563070
vt 0.557025 0.563070
vt 0.557025 0.563070
vt 0.557025 0.563070
vt 0.557025 0.563070
vt 0.557025 0.563070
vt 0.557025 0.563070
vn 1.0000 -0.0000 0.0000
vn 0.5711 -0.6618 -0.4856
vn 0.5434 0.0571 -0.8375
vn 0.5674 0.7508 -0.3381
vn 0.5399 0.8357 0.1000
vn 0.4348 0.2918 0.8519
vn 0.5443 0.4927 -0.6789
vn 0.5504 -0.2702 -0.7900
vn 0.0000 0.0000 1.0000
vn -1.0000 -0.0000 -0.0000
vn -0.5711 -0.6618 -0.4856
vn -0.5434 0.0571 -0.8375
vn -0.5674 0.7508 -0.3381
vn -0.5399 0.8357 0.1000
vn -0.4348 0.2918 0.8519
vn -0.5443 0.4927 -0.6789
vn -0.5504 -0.2702 -0.7900
vn 0.0000 0.0000 -1.0000
vn 0.5883 0.7358 0.3356
vn 0.5562 0.6341 0.5371
vn 0.5340 0.3012 0.7900
vn 0.5476 -0.7710 0.3251
vn 0.5208 -0.8483 -0.0956
vn 0.4910 -0.7761 -0.3958
vn 0.5260 -0.4914 0.6941
vn 0.5271 -0.0827 0.8458
vn -0.5883 0.7358 0.3356
vn -0.5562 0.6341 0.5371
vn -0.5340 0.3012 0.7900
vn -0.5476 -0.7710 0.3251
vn -0.5208 -0.8483 -0.0956
vn -0.4910 -0.7761 -0.3958
vn -0.5260 -0.4914 0.6941
vn -0.5271 -0.0827 0.8458
vn 0.3638 -0.0000 -0.9315
vn 0.9614 -0.0000 -0.2750
vn 0.9614 -0.0000 0.2750
vn 0.3629 0.0000 0.9318
vn 0.9541 -0.1235 -0.2729
vn 0.9280 0.2616 -0.2655
vn 0.3150 -0.3393 -0.8864
vn 0.9525 -0.1358 0.2725
vn 0.3130 -0.3716 0.8740
vn 0.3422 0.0278 0.9392
vn 0.9614 0.0096 0.2750
vn 0.9614 0.0096 -0.2750
vn 0.3431 0.0278 -0.9389
vn 0.3207 0.0000 0.9472
vn 0.3216 0.0000 -0.9469
vn 0.3356 -0.1970 0.9212
vn 0.9591 -0.0690 0.2744
vn 0.9591 -0.0690 -0.2744
vn 0.3365 -0.1969 -0.9209
vn 0.2742 0.6175 -0.7372
vn 0.9280 0.2616 0.2655
vn 0.2735 0.6176 0.7374
vn -0.3638 -0.0000 -0.9315
vn -0.9614 -0.0000 -0.2750
vn -0.9614 -0.0000 0.2750
vn -0.3629 0.0000 0.9318
vn -0.9541 -0.1235 -0.2729
vn -0.9280 0.2616 -0.2655
vn -0.3150 -0.3393 -0.8864
vn -0.9525 -0.1358 0.2725
vn -0.3130 -0.3716 0.8740
vn -0.3422 0.0278 0.9392
vn -0.9614 0.0096 0.2750
vn -0.9614 0.0096 -0.2750
vn -0.3431 0.0278 -0.9389
vn -0.3207 0.0000 0.9472
vn -0.3216 0.0000 -0.9469
vn -0.3356 -0.1970 0.9212
vn -0.9591 -0.0690 0.2744
vn -0.9591 -0.0690 -0.2744
vn -0.3365 -0.1969 -0.9209
vn -0.2742 0.6175 -0.7372
vn -0.9280 0.2616 0.2655
vn -0.2735 0.6176 0.7374
vn 0.0000 -1.0000 0.0000
vn 0.0000 1.0000 -0.0000
usemtl M_PCL_Flat_Grey_Light
s off
f 28/1/1 27/2/1 31/3/1 32/4/1
f 32/4/1 31/3/1 33/5/1 34/6/1
f 34/6/1 33/5/1 35/7/1 36/8/1
f 26/9/1 25/10/1 29/11/1 30/12/1
f 30/12/1 29/11/1 27/2/1 28/1/1
f 22/13/1 23/14/1 24/15/1
f 24/15/1 23/14/1 25/10/1 26/9/1
f 36/8/1 35/7/1 37/16/1
f 40/17/2 84/18/2 25/10/2 23/14/2
f 45/19/3 88/20/3 27/2/3 29/11/3
f 96/21/4 98/22/4 33/5/4 31/3/4
f 98/22/5 102/23/5 35/7/5 33/5/5
f 102/23/6 44/24/6 37/16/6 35/7/6
f 88/20/7 96/21/7 31/3/7 27/2/7
f 84/18/8 45/19/8 29/11/8 25/10/8
f 81/25/9 107/26/9 38/27/9 22/13/9
f 23/14/1 22/13/1 38/27/1 39/28/1
f 23/14/9 82/29/9 40/17/9
f 91/30/10 97/31/10 95/32/10 89/33/10
f 97/31/10 100/34/10 99/35/10 95/32/10
f 100/34/10 104/36/10 103/37/10 99/35/10
f 86/38/10 93/39/10 92/40/10 85/41/10
f 93/39/10 91/30/10 89/33/10 92/40/10
f 81/25/10 83/42/10 82/29/10
f 83/42/10 86/38/10 85/41/10 82/29/10
f 104/36/10 106/43/10 103/37/10
f 40/17/11 82/29/11 85/41/11 84/18/11
f 45/19/12 92/40/12 89/33/12 88/20/12
f 96/21/13 95/32/13 99/35/13 98/22/13
f 98/22/14 99/35/14 103/37/14 102/23/14
f 102/23/15 103/37/15 106/43/15 44/24/15
f 88/20/16 89/33/16 95/32/16 96/21/16
f 84/18/17 85/41/17 92/40/17 45/19/17
f 82/29/10 108/44/10 107/26/10 81/25/10
f 39/28/18 108/44/18 82/29/18 40/17/18 23/14/18
f 41/45/9 81/25/9 22/13/9
usemtl M_PCL_Flat_White
f 42/46/19 41/47/19 22/48/19 24/49/19
f 87/50/20 42/46/20 24/49/20 26/51/20
f 94/52/21 87/50/21 26/51/21 30/53/21
f 101/54/22 43/55/22 32/56/22 34/57/22
f 105/58/23 101/54/23 34/57/23 36/59/23
f 44/60/24 105/58/24 36/59/24 37/61/24
f 43/55/25 90/62/25 28/63/25 32/56/25
f 90/62/26 94/52/26 30/53/26 28/63/26
f 42/46/27 83/64/27 81/65/27 41/47/27
f 87/50/28 86/66/28 83/64/28 42/46/28
f 94/52/29 93/67/29 86/66/29 87/50/29
f 101/54/30 100/68/30 97/69/30 43/55/30
f 105/58/31 104/70/31 100/68/31 101/54/31
f 44/60/32 106/71/32 104/70/32 105/58/32
f 43/55/33 97/69/33 91/72/33 90/62/33
f 90/62/34 91/72/34 93/67/34 94/52/34
usemtl M_PCL_Flat_Brown.Taupe
f 71/73/35 47/74/35 2/75/35 16/76/35
f 16/76/36 2/75/36 4/77/36 17/78/36
f 17/78/37 4/77/37 6/79/37 18/80/37
f 18/80/38 6/79/38 55/81/38 75/82/38
f 1/83/39 3/84/39 8/85/39 7/86/39
f 4/77/40 2/75/40 19/87/40 20/88/40
f 46/89/41 1/83/41 7/86/41 56/90/41
f 3/84/42 5/91/42 9/92/42 8/85/42
f 5/91/43 54/93/43 60/94/43 9/92/43
f 5/91/44 12/95/44 65/96/44 54/93/44
f 3/84/45 11/97/45 12/95/45 5/91/45
f 1/83/46 10/98/46 11/97/46 3/84/46
f 46/89/47 61/99/47 10/98/47 1/83/47
f 12/95/48 15/100/48 70/101/48 65/96/48
f 11/97/37 14/102/37 15/100/37 12/95/37
f 10/98/36 13/103/36 14/102/36 11/97/36
f 61/99/49 66/104/49 13/103/49 10/98/49
f 15/100/50 18/80/50 75/82/50 70/101/50
f 14/102/51 17/78/51 18/80/51 15/100/51
f 13/103/52 16/76/52 17/78/52 14/102/52
f 66/104/53 71/73/53 16/76/53 13/103/53
f 2/75/54 47/74/54 76/105/54 19/87/54
f 6/79/55 4/77/55 20/88/55 21/106/55
f 55/81/56 6/79/56 21/106/56 80/107/56
f 71/73/57 72/108/57 49/109/57 47/74/57
f 72/108/58 73/110/58 51/111/58 49/109/58
f 73/110/59 74/112/59 53/113/59 51/111/59
f 74/112/60 75/82/60 55/81/60 53/113/60
f 48/114/61 57/115/61 58/116/61 50/117/61
f 51/111/62 78/118/62 77/119/62 49/109/62
f 46/89/63 56/90/63 57/115/63 48/114/63
f 50/117/64 58/116/64 59/120/64 52/121/64
f 52/121/65 59/120/65 60/94/65 54/93/65
f 52/121/66 54/93/66 65/96/66 64/122/66
f 50/117/67 52/121/67 64/122/67 63/123/67
f 48/114/68 50/117/68 63/123/68 62/124/68
f 46/89/69 48/114/69 62/124/69 61/99/69
f 64/122/70 65/96/70 70/101/70 69/125/70
f 63/123/59 64/122/59 69/125/59 68/126/59
f 62/124/58 63/123/58 68/126/58 67/127/58
f 61/99/71 62/124/71 67/127/71 66/104/71
f 69/125/72 70/101/72 75/82/72 74/112/72
f 68/126/73 69/125/73 74/112/73 73/110/73
f 67/127/74 68/126/74 73/110/74 72/108/74
f 66/104/75 67/127/75 72/108/75 71/73/75
f 49/109/76 77/119/76 76/105/76 47/74/76
f 53/113/77 79/128/77 78/118/77 51/111/77
f 55/81/78 80/107/78 79/128/78 53/113/78
f 56/90/79 7/86/79 8/85/79 9/92/79 60/94/79 59/120/79 58/116/79 57/115/79
f 19/87/80 76/105/80 77/119/80 78/118/80 79/128/80 80/107/80 21/106/80 20/88/80
