# Blender v3.0.1 OBJ File: 'Flat_Melee.blend'
# www.blender.org
mtllib Tanto.mtl
o Tanto_Plane.004
v 0.001580 0.163254 -0.013204
v 0.001580 0.143722 -0.013204
v 0.001580 0.108205 -0.013204
v 0.001580 0.063917 -0.013204
v 0.001580 0.014722 -0.013204
v 0.000000 0.143722 0.005031
v 0.000000 0.179656 -0.013204
v 0.001580 0.178566 -0.013204
v 0.000000 0.014722 0.016584
v 0.001580 0.014722 0.015006
v 0.001580 0.063917 0.012910
v 0.000000 0.063917 0.014489
v 0.001580 0.108205 0.008709
v 0.000000 0.108205 0.010291
v 0.001580 0.143722 0.003446
v 0.000000 0.163254 -0.002256
v 0.001580 0.163254 -0.003846
v 0.000000 -0.201684 0.019531
v 0.000000 -0.071684 0.019531
v 0.007003 -0.201684 0.017553
v 0.007003 -0.071684 0.017553
v 0.010000 -0.201684 0.001296
v 0.010000 -0.071684 0.001296
v 0.007003 -0.201684 -0.014961
v 0.007003 -0.071684 -0.014961
v 0.000000 -0.201684 -0.016938
v 0.000000 -0.071684 -0.016938
v 0.001580 -0.059134 -0.013204
v 0.001580 -0.059134 0.015006
v 0.000000 -0.059134 0.016584
v 0.003256 -0.071684 -0.013776
v 0.003256 -0.071684 0.017311
v 0.003256 -0.059134 -0.013776
v 0.003256 -0.059134 0.017311
v -0.001580 0.163254 -0.013204
v -0.001580 0.143722 -0.013204
v -0.001580 0.108205 -0.013204
v -0.001580 0.063917 -0.013204
v -0.001580 0.014722 -0.013204
v -0.001580 0.178566 -0.013204
v -0.001580 0.014722 0.015006
v -0.001580 0.063917 0.012910
v -0.001580 0.108205 0.008709
v -0.001580 0.143722 0.003446
v -0.001580 0.163254 -0.003846
v -0.007003 -0.201684 0.017553
v -0.007003 -0.071684 0.017553
v -0.010000 -0.201684 0.001296
v -0.010000 -0.071684 0.001296
v -0.007003 -0.201684 -0.014961
v -0.007003 -0.071684 -0.014961
v -0.001580 -0.059134 -0.013204
v -0.001580 -0.059134 0.015006
v -0.003256 -0.071684 -0.013776
v -0.003256 -0.071684 0.017311
v -0.003256 -0.059134 -0.013776
v -0.003256 -0.059134 0.017311
vt 0.062109 0.941023
vt 0.062109 0.941023
vt 0.062109 0.941023
vt 0.062109 0.941023
vt 0.062109 0.941023
vt 0.062109 0.941023
vt 0.062109 0.941023
vt 0.062109 0.941023
vt 0.435108 0.942649
vt 0.435108 0.942649
vt 0.435108 0.942649
vt 0.435108 0.942649
vt 0.435108 0.942649
vt 0.435108 0.942649
vt 0.435108 0.942649
vt 0.435108 0.942649
vt 0.435108 0.942649
vt 0.435108 0.942649
vt 0.435108 0.942649
vt 0.435108 0.942649
vt 0.435108 0.942649
vt 0.435108 0.942649
vt 0.435108 0.942649
vt 0.435108 0.942649
vt 0.435108 0.942649
vt 0.435108 0.942649
vt 0.435108 0.942649
vt 0.435108 0.942649
vt 0.435108 0.942649
vt 0.435108 0.942649
vt 0.435108 0.942649
vt 0.435108 0.942649
vt 0.435108 0.942649
vt 0.435108 0.942649
vt 0.665880 0.695584
vt 0.665880 0.695584
vt 0.665880 0.695584
vt 0.665880 0.695584
vt 0.665880 0.695584
vt 0.665880 0.695584
vt 0.665880 0.695584
vt 0.665880 0.695584
vt 0.665880 0.695584
vt 0.665880 0.695584
vt 0.665880 0.695584
vt 0.665880 0.695584
vt 0.665880 0.695584
vt 0.665880 0.695584
vt 0.665880 0.695584
vt 0.665880 0.695584
vt 0.935828 0.929163
vt 0.935828 0.929163
vt 0.935828 0.929163
vt 0.935828 0.929163
vt 0.935828 0.929163
vt 0.935828 0.929163
vt 0.935828 0.929163
vt 0.935828 0.929163
vt 0.935828 0.929163
vt 0.935828 0.929163
vt 0.935828 0.929163
vt 0.935828 0.929163
vt 0.935828 0.929163
vt 0.935828 0.929163
vt 0.935828 0.929163
vt 0.935828 0.929163
vt 0.935828 0.929163
vt 0.935828 0.929163
vt 0.935828 0.929163
vt 0.935828 0.929163
vt 0.935828 0.929163
vn 0.0000 0.0000 -1.0000
vn 1.0000 0.0000 -0.0000
vn 0.0000 1.0000 0.0000
vn -1.0000 0.0000 -0.0000
vn 0.0000 0.0000 1.0000
vn 0.2717 0.0000 0.9624
vn 0.9834 0.0000 0.1813
vn 0.9834 0.0000 -0.1813
vn 0.2717 0.0000 -0.9624
vn 0.0000 -1.0000 0.0000
vn -0.2717 0.0000 0.9624
vn -0.9834 0.0000 0.1813
vn -0.9834 0.0000 -0.1813
vn -0.2717 0.0000 -0.9624
vn 0.5207 0.4604 0.7190
vn 0.7066 0.0301 0.7070
vn 0.7058 0.0669 0.7053
vn 0.7042 0.1041 0.7024
vn 0.6856 0.2545 0.6821
vn 0.7067 0.0000 0.7075
vn -0.5207 0.4604 0.7190
vn -0.7066 0.0301 0.7070
vn -0.7058 0.0669 0.7053
vn -0.7042 0.1041 0.7024
vn -0.6856 0.2545 0.6821
vn -0.7067 0.0000 0.7075
usemtl M_PCL_Flat_Black
s off
f 56/1/1 33/2/1 31/3/1 54/4/1
f 31/3/2 33/2/2 34/5/2 32/6/2
f 57/7/3 34/5/3 33/2/3 56/1/3
f 54/4/4 55/8/4 57/7/4 56/1/4
f 55/8/5 32/6/5 34/5/5 57/7/5
usemtl M_PCL_Flat_Grey_Dark
f 5/9/2 4/10/2 11/11/2 10/12/2
f 4/10/2 3/13/2 13/14/2 11/11/2
f 3/13/2 2/15/2 15/16/2 13/14/2
f 2/15/2 1/17/2 17/18/2 15/16/2
f 1/17/2 8/19/2 17/18/2
f 28/20/2 5/9/2 10/12/2 29/21/2
f 39/22/1 5/9/1 28/20/1 52/23/1
f 37/24/1 3/13/1 4/10/1 38/25/1
f 40/26/1 8/19/1 1/17/1 35/27/1
f 38/25/1 4/10/1 5/9/1 39/22/1
f 36/28/1 2/15/1 3/13/1 37/24/1
f 39/22/4 41/29/4 42/30/4 38/25/4
f 38/25/4 42/30/4 43/31/4 37/24/4
f 37/24/4 43/31/4 44/32/4 36/28/4
f 36/28/4 44/32/4 45/33/4 35/27/4
f 35/27/4 45/33/4 40/26/4
f 52/23/4 53/34/4 41/29/4 39/22/4
f 35/27/1 1/17/1 2/15/1 36/28/1
usemtl M_PCL_Flat_Brown.Bole
f 18/35/6 20/36/6 21/37/6 19/38/6
f 20/36/7 22/39/7 23/40/7 21/37/7
f 22/39/8 24/41/8 25/42/8 23/40/8
f 24/41/9 26/43/9 27/44/9 25/42/9
f 26/43/10 24/41/10 22/39/10 20/36/10 18/35/10 46/45/10 48/46/10 50/47/10
f 18/35/11 19/38/11 47/48/11 46/45/11
f 46/45/12 47/48/12 49/49/12 48/46/12
f 48/46/13 49/49/13 51/50/13 50/47/13
f 50/47/14 51/50/14 27/44/14 26/43/14
f 21/37/3 23/40/3 25/42/3 27/44/3 51/50/3 49/49/3 47/48/3 19/38/3
usemtl M_PCL_Flat_White
f 17/51/15 8/52/15 7/53/15 16/54/15
f 10/55/16 11/56/16 12/57/16 9/58/16
f 11/56/17 13/59/17 14/60/17 12/57/17
f 13/59/18 15/61/18 6/62/18 14/60/18
f 15/61/19 17/51/19 16/54/19 6/62/19
f 29/63/20 10/55/20 9/58/20 30/64/20
f 40/65/1 7/53/1 8/52/1
f 45/66/21 16/54/21 7/53/21 40/65/21
f 41/67/22 9/58/22 12/57/22 42/68/22
f 42/68/23 12/57/23 14/60/23 43/69/23
f 43/69/24 14/60/24 6/62/24 44/70/24
f 44/70/25 6/62/25 16/54/25 45/66/25
f 53/71/26 30/64/26 9/58/26 41/67/26
